<?xml version="1.0" standalone="no"?>
<!DOCTYPE svg PUBLIC "-//W3C//DTD SVG 1.1//EN" "http://www.w3.org/Graphics/SVG/1.1/DTD/svg11.dtd" >
<svg xmlns="http://www.w3.org/2000/svg" xmlns:xlink="http://www.w3.org/1999/xlink" version="1.1">
<metadata>
Created by FontForge 20170731 at Wed Nov 25 00:14:37 1992
 By Aleksey,,,
Copyright 1990-1993 Bitstream Inc.  All rights reserved.
</metadata>
<defs>
<font id="Square721BT-Bold" horiz-adv-x="1024" >
  <font-face 
    font-family="Square721 BT"
    font-weight="700"
    font-stretch="normal"
    units-per-em="2048"
    panose-1="2 11 8 4 2 2 2 6 2 3"
    ascent="1638"
    descent="-410"
    x-height="1053"
    cap-height="1489"
    bbox="-342 -483 3117 1984"
    underline-thickness="217"
    underline-position="-531"
    unicode-range="U+0020-F002"
  />
<missing-glyph horiz-adv-x="1229" 
d="M102 -362v1806h1024v-1806h-1024zM217 -248h795v1577h-795v-1577z" />
    <glyph glyph-name=".notdef" horiz-adv-x="1229" 
d="M102 -362v1806h1024v-1806h-1024zM217 -248h795v1577h-795v-1577z" />
    <glyph glyph-name=".null" horiz-adv-x="0" 
 />
    <glyph glyph-name="nonmarkingreturn" horiz-adv-x="717" 
 />
    <glyph glyph-name="space" unicode=" " horiz-adv-x="717" 
 />
    <glyph glyph-name="exclam" unicode="!" horiz-adv-x="717" 
d="M195 592v897h327v-897h-327zM195 0v356h327v-356h-327z" />
    <glyph glyph-name="quotedbl" unicode="&#x22;" horiz-adv-x="678" 
d="M406 1438h192v-559h-192v559zM80 1438h192v-559h-192v559z" />
    <glyph glyph-name="numbersign" unicode="#" horiz-adv-x="1575" 
d="M709 848l-88 -244h251l86 244h-249zM709 1464h221l-146 -415h242l148 415h221l-148 -415h283l-74 -201h-280l-84 -242h290l-71 -200h-291l-148 -416h-221l148 416h-244l-149 -416h-220l146 416h-287l76 200h282l86 242h-299l74 201h297z" />
    <glyph glyph-name="dollar" unicode="$" horiz-adv-x="1432" 
d="M649 -141v141h-53q-238 0 -358.5 84t-120.5 250v123h346v-6q0 -81 36.5 -113.5t129.5 -32.5h20v303q-288 15 -405 108.5t-117 305.5v74q0 207 109.5 299t359.5 92h53v115h113v-115h65q209 0 325 -83t116 -233v-86h-350q0 57 -31.5 81t-104.5 24h-20v-285
q303 -22 428 -109t125 -272v-125q0 -183 -109.5 -290t-298.5 -109h-145v-141h-113zM762 592v-287h18q97 0 132.5 23t35.5 82v53q0 63 -39 91t-147 38zM649 920v270h-20q-73 0 -106.5 -23.5t-33.5 -74.5v-62q0 -49 38.5 -76t121.5 -34z" />
    <glyph glyph-name="percent" unicode="%" horiz-adv-x="2247" 
d="M455 727h32q55 0 74 28.5t19 147.5v201q0 116 -19 146t-74 30h-32q-55 0 -74 -29.5t-19 -146.5v-201q0 -117 18.5 -146.5t74.5 -29.5zM422 498q-187 0 -260.5 74t-73.5 264v333q0 189 74 263.5t260 74.5h96q186 0 260 -73.5t74 -264.5v-333q0 -191 -73.5 -264.5
t-260.5 -73.5h-96zM608 -18l858 1525h166l-856 -1525h-168zM1753 211h33q55 0 73.5 28t18.5 146v203q0 116 -19 146t-73 30h-33q-55 0 -73.5 -30t-18.5 -146v-203q0 -116 18 -145t74 -29zM1720 -18q-186 0 -260 74t-74 263v334q0 189 74 263.5t260 74.5h97q186 0 259.5 -74
t73.5 -264v-334q0 -190 -73 -263.5t-260 -73.5h-97z" />
    <glyph glyph-name="ampersand" unicode="&#x26;" horiz-adv-x="1526" 
d="M930 322l-428 383q-39 -7 -53.5 -33t-14.5 -121v-135q0 -74 37 -105.5t123 -31.5h233q42 0 65 9.5t38 33.5zM1520 182l-189 -219l-164 146q-56 -68 -145.5 -97.5t-241.5 -29.5h-190q-266 0 -390 91t-124 285v189q0 140 60.5 218.5t182.5 98.5q-62 54 -91 115t-29 139v78
q0 164 108.5 237.5t354.5 73.5h114q246 0 354.5 -73.5t108.5 -237.5v-160h-328v107q0 40 -24 58t-80 18h-154q-56 0 -81 -18t-25 -58v-47q0 -19 8 -38t20 -30l459 -412v164h324v-245q0 -66 -8.5 -106t-26.5 -71z" />
    <glyph glyph-name="quotesingle" unicode="'" horiz-adv-x="352" 
d="M80 1438h192v-559h-192v559z" />
    <glyph glyph-name="parenleft" unicode="(" horiz-adv-x="823" 
d="M186 997q0 286 81 398t282 112h127v-249q-86 -5 -117 -56t-31 -250v-413q0 -199 31 -250t117 -56v-251h-127q-201 0 -282 112t-81 398v505z" />
    <glyph glyph-name="parenright" unicode=")" horiz-adv-x="823" 
d="M635 997v-505q0 -286 -81 -398t-282 -112h-125v251q85 5 115.5 54.5t30.5 251.5v413q0 202 -30.5 251.5t-114.5 53.5l-1 250h125q201 0 282 -112t81 -398z" />
    <glyph glyph-name="asterisk" unicode="*" horiz-adv-x="1049" 
d="M674 958l168 -253l-172 -101l-138 273zM684 1137l305 18v-201l-305 19v164zM532 1233l138 274l172 -100l-168 -256zM375 1153l-170 254l174 100l137 -272zM59 954v201l306 -18v-164zM514 879l-135 -275l-174 101l168 256z" />
    <glyph glyph-name="plus" unicode="+" horiz-adv-x="1706" 
d="M752 1221h202v-510h498v-199h-498v-512h-202v512h-498v199h498v510z" />
    <glyph glyph-name="comma" unicode="," horiz-adv-x="717" 
d="M197 0v356h327v-409q0 -95 -80.5 -152t-216.5 -57h-30v149h6q51 0 78.5 22t27.5 62q0 12 -0.5 18t-1.5 11h-110z" />
    <glyph glyph-name="hyphen" unicode="-" horiz-adv-x="688" 
d="M45 389v303h598v-303h-598z" />
    <glyph glyph-name="period" unicode="." horiz-adv-x="717" 
d="M195 0v356h327v-356h-327z" />
    <glyph glyph-name="slash" unicode="/" horiz-adv-x="559" 
d="M125 -190h-172l506 1697h172z" />
    <glyph glyph-name="zero" unicode="0" horiz-adv-x="1432" 
d="M487 887v-285q0 -189 39 -239t158 -50h64q118 0 156 47.5t38 241.5v285q0 194 -38 241.5t-156 47.5h-64q-119 0 -158 -50t-39 -239zM104 899q0 340 116.5 474t406.5 134h178q289 0 405.5 -134.5t116.5 -473.5v-309q0 -339 -116.5 -473.5t-405.5 -134.5h-178
q-290 0 -406.5 133.5t-116.5 474.5v309z" />
    <glyph glyph-name="one" unicode="1" horiz-adv-x="1432" 
d="M170 1049l510 440h440v-1489h-375v1108l-350 -311z" />
    <glyph glyph-name="two" unicode="2" horiz-adv-x="1432" 
d="M133 0v354q0 160 60 257t182 132l434 131q69 21 92 47.5t23 79.5v60q0 82 -38 113.5t-134 31.5h-66q-95 0 -132.5 -32.5t-37.5 -112.5v-84h-369v133q0 192 120 294.5t345 102.5h217q221 0 347.5 -103.5t126.5 -283.5v-123q0 -164 -68 -264t-205 -137l-422 -113
q-50 -14 -68 -33.5t-18 -60.5v-59h770v-330h-1159z" />
    <glyph glyph-name="three" unicode="3" horiz-adv-x="1432" 
d="M117 502h377v-72q0 -78 40.5 -111.5t135.5 -33.5h69q89 0 131.5 33t42.5 102v55q0 72 -41 104.5t-133 32.5h-123v299h119q81 0 120.5 32.5t39.5 98.5v39q0 65 -38.5 96t-119.5 31h-63q-86 0 -123 -34t-37 -111v-51h-373v100q0 191 126 293t362 102h162q239 0 363 -95
t124 -279v-97q0 -107 -56 -173.5t-167 -90.5q128 -35 186.5 -107.5t58.5 -195.5v-111q0 -178 -126.5 -277t-354.5 -99h-225q-223 0 -350 102.5t-127 282.5v135z" />
    <glyph glyph-name="four" unicode="4" horiz-adv-x="1432" 
d="M401 584h418v594zM72 285v391l583 813h537v-905h176v-299h-176v-285h-373v285h-747z" />
    <glyph glyph-name="five" unicode="5" horiz-adv-x="1432" 
d="M139 438h371v-26q0 -73 34.5 -99t143.5 -26h55q112 0 145.5 29t33.5 124v148q0 97 -30.5 125t-148.5 28h-55q-98 0 -132 -17t-38 -60h-354v825h1067v-295h-711v-262q41 52 103.5 78t146.5 26h86q234 0 339 -100t105 -322v-213q0 -232 -115.5 -325.5t-406.5 -93.5h-139
q-239 0 -369.5 98.5t-130.5 277.5v80z" />
    <glyph glyph-name="six" unicode="6" horiz-adv-x="1432" 
d="M690 281h80q107 0 137.5 21t30.5 93v111q0 71 -28.5 91.5t-139.5 20.5h-80q-110 0 -140 -22t-30 -90v-111q0 -69 31 -91.5t139 -22.5zM1276 1081h-373v19q0 64 -26.5 86t-106.5 22h-98q-97 0 -124.5 -23.5t-27.5 -105.5v-260q46 48 106.5 71t137.5 23h145q206 0 304 -98
t98 -305v-137q0 -196 -124 -293.5t-372 -97.5h-176q-275 0 -385.5 134t-110.5 474v309q0 340 110.5 474t385.5 134h176q227 0 344 -85t117 -251v-90z" />
    <glyph glyph-name="seven" unicode="7" horiz-adv-x="1432" 
d="M141 1190v299h1129v-295l-510 -1194h-393l497 1190h-723z" />
    <glyph glyph-name="eight" unicode="8" horiz-adv-x="1432" 
d="M629 -18q-226 0 -354 100t-128 276v111q0 122 60.5 196.5t185.5 106.5q-112 25 -167.5 86t-55.5 160v94q0 201 120 298t367 97h136q245 0 366 -97.5t121 -297.5v-94q0 -95 -56.5 -156.5t-168.5 -89.5q129 -35 188.5 -107.5t59.5 -195.5v-111q0 -178 -127.5 -277
t-354.5 -99h-192zM741 1210h-34q-80 0 -121 -33t-41 -98v-39q0 -65 41 -99t119 -34h38q79 0 120.5 34.5t41.5 98.5v39q0 65 -41.5 98t-122.5 33zM748 285q87 0 131.5 34.5t44.5 102.5v57q0 71 -45 105t-138 34h-41q-86 0 -131 -35t-45 -104v-57q0 -69 45.5 -103t135.5 -34
h43z" />
    <glyph glyph-name="nine" unicode="9" horiz-adv-x="1432" 
d="M756 1208h-82q-107 0 -137.5 -21.5t-30.5 -92.5v-111q0 -71 28.5 -92t139.5 -21h82q109 0 138.5 22t29.5 91v111q0 69 -30.5 91.5t-137.5 22.5zM168 408h373v-19q0 -64 26.5 -86t106.5 -22h98q97 0 124.5 23.5t27.5 105.5v260q-46 -48 -106.5 -71.5t-137.5 -23.5h-145
q-206 0 -304 98.5t-98 305.5v135q0 197 124 295t372 98h176q274 0 384.5 -133.5t110.5 -474.5v-309q0 -340 -110 -474t-385 -134h-176q-228 0 -344.5 84t-116.5 249v93z" />
    <glyph glyph-name="colon" unicode=":" horiz-adv-x="717" 
d="M195 682v356h327v-356h-327zM195 0v356h327v-356h-327z" />
    <glyph glyph-name="semicolon" unicode=";" horiz-adv-x="717" 
d="M195 0v356h327v-409q0 -95 -80.5 -152t-216.5 -57h-30v149h6q51 0 78.5 22t27.5 62q0 12 -0.5 18t-1.5 11h-110zM195 682v356h327v-356h-327z" />
    <glyph glyph-name="less" unicode="&#x3c;" horiz-adv-x="1706" 
d="M1442 1194v-219l-893 -365l893 -364v-219l-1178 485v199z" />
    <glyph glyph-name="equal" unicode="=" horiz-adv-x="1706" 
d="M254 496h1198v-199h-1198v199zM254 926h1198v-199h-1198v199z" />
    <glyph glyph-name="greater" unicode="&#x3e;" horiz-adv-x="1706" 
d="M264 1194l1178 -483v-199l-1178 -485v219l895 364l-895 365v219z" />
    <glyph glyph-name="question" unicode="?" horiz-adv-x="1178" 
d="M78 1094v88q0 154 101.5 239.5t285.5 85.5h233q180 0 282.5 -83.5t102.5 -227.5v-145q0 -43 -13 -89.5t-36 -84.5q-44 -74 -212 -165q-32 -17 -48 -26q-38 -21 -56 -46.5t-18 -59.5v-48h-350v119q0 89 30 143.5t103 94.5l174 94q39 21 55.5 39.5t16.5 40.5v92
q0 44 -24 65t-74 21h-88q-57 0 -87 -23.5t-30 -68.5v-55h-348zM350 0v356h350v-356h-350z" />
    <glyph glyph-name="at" unicode="@" horiz-adv-x="2048" 
d="M1167 272q-55 -84 -127 -123.5t-170 -39.5q-158 0 -240.5 86t-82.5 254q0 239 139.5 401t343.5 162q80 0 139 -33t97 -98l53 98h178l-147 -598q-3 -11 -5 -22.5t-2 -18.5q0 -35 24 -52.5t71 -17.5q39 0 81.5 20t79.5 56q86 80 130.5 187t44.5 235q0 240 -185.5 394.5
t-478.5 154.5q-141 0 -262.5 -34t-220.5 -101q-170 -114 -261.5 -285t-91.5 -375q0 -307 207 -490.5t553 -183.5q162 0 316.5 49t287.5 142l82 -117q-153 -115 -324.5 -173t-357.5 -58q-192 0 -353 48.5t-286 143.5q-155 121 -232 279t-77 358q0 167 52.5 318.5t154.5 275.5
q148 181 356 274t463 93q169 0 317.5 -45.5t258.5 -128.5q135 -105 201.5 -239.5t66.5 -303.5q0 -165 -65.5 -304.5t-188.5 -238.5q-70 -56 -152.5 -85.5t-171.5 -29.5q-106 0 -159.5 42t-55.5 124zM1217 700q-13 81 -57.5 123.5t-117.5 42.5q-114 0 -198 -124t-84 -298
q0 -92 40.5 -140t117.5 -48q83 0 151.5 63t93.5 164z" />
    <glyph glyph-name="A" unicode="A" horiz-adv-x="1536" 
d="M608 563h326l-148 617h-26zM39 0l428 1489h614l418 -1489h-428l-67 260h-469l-68 -260h-428z" />
    <glyph glyph-name="B" unicode="B" horiz-adv-x="1485" 
d="M152 1489h700q276 0 388 -78.5t112 -267.5v-96q0 -126 -61.5 -194t-188.5 -83q132 -26 205 -104.5t73 -196.5v-88q0 -212 -115.5 -296.5t-422.5 -84.5h-690v1489zM549 1159v-264h282q64 0 91.5 24t27.5 78v60q0 54 -27.5 78t-91.5 24h-282zM549 610v-278h297
q67 0 97 25.5t30 82.5v62q0 57 -30 82.5t-97 25.5h-297z" />
    <glyph glyph-name="C" unicode="C" horiz-adv-x="1446" 
d="M1356 573v-43q0 -291 -128 -419.5t-419 -128.5h-135q-316 0 -443 134.5t-127 473.5v309q0 339 127 473.5t443 134.5h110q314 0 438 -118t124 -416v-29h-398v27q0 102 -47 144t-164 42q-129 0 -172 -50t-43 -241v-245q0 -190 43 -239.5t172 -49.5q121 0 167 45.5t46 161.5
v34h406z" />
    <glyph glyph-name="D" unicode="D" horiz-adv-x="1583" 
d="M152 0v1489h757q316 0 443 -132t127 -462v-301q0 -330 -127 -462t-443 -132h-757zM551 332h297q137 0 180 49t43 240v245q0 191 -43.5 241t-179.5 50h-297v-825z" />
    <glyph glyph-name="E" unicode="E" horiz-adv-x="1407" 
d="M152 0v1489h1118v-332h-719v-258h698v-287h-698v-280h735v-332h-1134z" />
    <glyph glyph-name="F" unicode="F" horiz-adv-x="1255" 
d="M152 0v1489h1001v-332h-602v-289h567v-327h-567v-541h-399z" />
    <glyph glyph-name="G" unicode="G" horiz-adv-x="1540" 
d="M1438 1024h-399q-2 70 -51.5 101.5t-160.5 31.5h-100q-137 0 -181 -50t-44 -241v-245q0 -189 44 -239t181 -50h111q118 0 164.5 33t46.5 114v58h-228v278h617v-254q0 -302 -132.5 -440.5t-418.5 -138.5h-271q-252 0 -382 159.5t-130 470.5v226q0 348 137 508.5t433 160.5
h217q240 0 393.5 -119.5t153.5 -300.5v-63z" />
    <glyph glyph-name="H" unicode="H" horiz-adv-x="1622" 
d="M152 0v1489h399v-557h520v557h399v-1489h-399v582h-520v-582h-399z" />
    <glyph glyph-name="I" unicode="I" horiz-adv-x="729" 
d="M164 0v1489h403v-1489h-403z" />
    <glyph glyph-name="J" unicode="J" horiz-adv-x="1274" 
d="M1124 457q0 -240 -104 -357.5t-318 -117.5h-184q-243 0 -346.5 103.5t-103.5 342.5v211h389v-170q0 -80 21 -108.5t75 -28.5h72q54 0 75 28.5t21 108.5v1020h403v-1032z" />
    <glyph glyph-name="K" unicode="K" horiz-adv-x="1464" 
d="M152 0v1489h399v-559h31l358 559h475l-491 -721l540 -768h-493l-391 594h-29v-594h-399z" />
    <glyph glyph-name="L" unicode="L" horiz-adv-x="1253" 
d="M156 0v1489h403v-1143h666v-346h-1069z" />
    <glyph glyph-name="M" unicode="M" horiz-adv-x="2081" 
d="M1346 1489h583v-1489h-389v1094l-299 -1094h-399l-301 1106v-1106h-389v1489h583l305 -1077z" />
    <glyph glyph-name="N" unicode="N" horiz-adv-x="1741" 
d="M152 0v1489h593l463 -1106v1106h381v-1489h-594l-463 1116v-1116h-380z" />
    <glyph glyph-name="O" unicode="O" horiz-adv-x="1546" 
d="M512 866v-245q0 -191 43 -240t180 -49h74q137 0 181 50t44 239v245q0 190 -44 240.5t-181 50.5h-74q-136 0 -179.5 -50t-43.5 -241zM104 899q0 339 127 473.5t443 134.5h196q317 0 444.5 -135t127.5 -473v-309q0 -338 -127.5 -473t-444.5 -135h-196q-316 0 -443 134.5
t-127 473.5v309z" />
    <glyph glyph-name="P" unicode="P" horiz-adv-x="1473" 
d="M152 0v1489h698q295 0 422 -115.5t127 -380.5v-98q0 -266 -127.5 -382t-421.5 -116h-299v-397h-399zM551 729h278q98 0 130 35t32 141v86q0 89 -40.5 126.5t-137.5 37.5h-262v-426z" />
    <glyph glyph-name="Q" unicode="Q" horiz-adv-x="1561" 
d="M512 866v-245q0 -191 43 -240t180 -49h129l-119 102l158 182l131 -112v362q0 190 -44 240.5t-181 50.5h-74q-136 0 -179.5 -50t-43.5 -241zM104 899q0 339 127 473.5t443 134.5h196q317 0 444.5 -135t127.5 -473v-309q0 -148 -19 -229.5t-63 -129.5l115 -98l-152 -186
l-129 106q-54 -37 -135 -54t-207 -17h-178q-316 0 -443 134.5t-127 473.5v309z" />
    <glyph glyph-name="R" unicode="R" horiz-adv-x="1470" 
d="M551 770h223q100 0 136 35t36 129v57q0 95 -36.5 130.5t-135.5 35.5h-223v-387zM152 0v1489h600q344 0 472 -90.5t128 -317.5v-120q0 -151 -73 -236.5t-216 -103.5q151 -25 220 -100t69 -214v-307h-408v268q0 95 -36.5 130.5t-135.5 35.5h-221v-434h-399z" />
    <glyph glyph-name="S" unicode="S" horiz-adv-x="1419" 
d="M86 461h383v-15q0 -81 43 -113t152 -32h100q91 0 127.5 24.5t36.5 86.5v65q0 53 -29 76t-131 35l-324 35q-181 20 -264.5 113.5t-83.5 277.5v92q0 104 33 185.5t96 133.5q54 45 131 63.5t230 18.5h239q223 0 341 -90t118 -260v-102h-383v16q0 67 -31.5 93t-113.5 26h-92
q-95 0 -130.5 -22.5t-35.5 -77.5v-62q0 -82 161 -100v0l295 -33q191 -22 285 -111.5t94 -251.5v-143q0 -185 -115 -296t-309 -111h-325q-261 0 -379.5 90t-118.5 286v103z" />
    <glyph glyph-name="T" unicode="T" horiz-adv-x="1290" 
d="M444 0v1157h-383v332h1168v-332h-381v-1157h-404z" />
    <glyph glyph-name="U" unicode="U" horiz-adv-x="1587" 
d="M129 1489h397v-868q0 -181 45.5 -235t186.5 -54h73q140 0 185 53t45 236v868h397v-899q0 -200 -24.5 -294t-83.5 -163q-70 -81 -174.5 -116t-282.5 -35h-197q-178 0 -282.5 35t-173.5 116q-60 70 -85.5 165.5t-25.5 291.5v899z" />
    <glyph glyph-name="V" unicode="V" horiz-adv-x="1513" 
d="M39 1489h424l289 -1163l303 1163h422l-424 -1489h-604z" />
    <glyph glyph-name="W" unicode="W" horiz-adv-x="2126" 
d="M66 1489h403l141 -1141l232 1141h446l213 -1141l156 1141h401l-248 -1489h-569l-182 1010l-189 -1010h-575z" />
    <glyph glyph-name="X" unicode="X" horiz-adv-x="1505" 
d="M47 0l393 772l-338 717h449l211 -516l213 516h450l-350 -717l383 -772h-457l-245 567l-256 -567h-453z" />
    <glyph glyph-name="Y" unicode="Y" horiz-adv-x="1411" 
d="M-4 1489h450l265 -574l260 574h446l-510 -967v-522h-399v522z" />
    <glyph glyph-name="Z" unicode="Z" horiz-adv-x="1432" 
d="M94 0v348l713 795h-668v346h1174v-356l-695 -787h695v-346h-1219z" />
    <glyph glyph-name="bracketleft" unicode="[" horiz-adv-x="823" 
d="M186 0v1489h484v-232h-142v-1024h129v-233h-471z" />
    <glyph glyph-name="backslash" unicode="\" horiz-adv-x="559" 
d="M631 -190h-172l-508 1697h172z" />
    <glyph glyph-name="bracketright" unicode="]" horiz-adv-x="823" 
d="M635 0h-469v233h127v1024h-141v232h483v-1489z" />
    <glyph glyph-name="asciicircum" unicode="^" horiz-adv-x="2048" 
d="M897 1460h252l481 -561h-235l-371 371l-373 -371h-235z" />
    <glyph glyph-name="underscore" unicode="_" 
d="M0 -279h1024v-204h-1024v204z" />
    <glyph glyph-name="grave" unicode="`" 
d="M219 1548h258l197 -370h-142z" />
    <glyph glyph-name="a" unicode="a" horiz-adv-x="1198" 
d="M537 215h92q50 0 75 23t25 69v55q0 47 -25 70t-75 23h-92q-51 0 -77 -23.5t-26 -69.5v-55q0 -46 26 -69t77 -23zM143 785q2 151 84 216.5t273 65.5h159q222 0 315 -79t93 -267v-721h-336v96q-42 -56 -100 -83t-135 -27h-121q-135 0 -208 76t-73 217v98q0 136 83 209
t237 73h92q72 0 130 -24.5t95 -71.5v205q0 49 -21.5 70.5t-70.5 21.5h-57q-61 0 -83 -16.5t-22 -59.5z" />
    <glyph glyph-name="b" unicode="b" horiz-adv-x="1202" 
d="M604 803q-70 0 -96.5 -37t-26.5 -160v-162q0 -122 26.5 -159t96.5 -37h39q70 0 96.5 37t26.5 159v162q0 123 -26.5 160t-96.5 37h-39zM147 1489h334v-567q34 71 104 108t171 37q180 0 265 -104.5t85 -327.5v-217q0 -223 -84 -327.5t-264 -104.5q-107 0 -177 39t-114 125
l4 -150h-324v1489z" />
    <glyph glyph-name="c" unicode="c" horiz-adv-x="1159" 
d="M1071 416q0 -8 1 -24.5t1 -24.5q0 -205 -96 -293t-324 -88h-141q-231 0 -324.5 96t-93.5 336v217q0 239 93.5 335.5t324.5 96.5h141q226 0 322 -87t96 -290v-28h-336v10q0 81 -27.5 112t-99.5 31h-45q-76 0 -101.5 -34t-25.5 -171v-168q0 -137 25.5 -170.5t101.5 -33.5
h45q73 0 100 32.5t27 120.5v25h336z" />
    <glyph glyph-name="d" unicode="d" horiz-adv-x="1202" 
d="M598 803h-39q-70 0 -96.5 -37t-26.5 -160v-162q0 -122 26.5 -159t96.5 -37h39q69 0 95 36t26 160v162q0 125 -26 161t-95 36zM1055 1489v-1489h-326l4 150q-44 -86 -113 -125t-176 -39q-180 0 -265 104.5t-85 327.5v217q0 223 85 327.5t265 104.5q101 0 171 -37t104 -108
v567h336z" />
    <glyph glyph-name="e" unicode="e" horiz-adv-x="1163" 
d="M1067 322q-12 -179 -109 -257.5t-305 -78.5h-141q-231 0 -324.5 96t-93.5 336v217q0 239 93.5 335.5t324.5 96.5h141q231 0 324.5 -96.5t93.5 -335.5v-166h-641v-129q0 -71 29.5 -100t103.5 -29h43q69 0 97 24t34 87h330zM430 645h313v37q0 105 -27.5 139.5t-107.5 34.5
h-43q-78 0 -106.5 -33.5t-28.5 -130.5v-47z" />
    <glyph glyph-name="f" unicode="f" horiz-adv-x="743" 
d="M166 0v797h-115v256h115q-1 13 -1.5 29.5t-0.5 47.5q0 187 75.5 273t239.5 86h246v-246h-78q-75 0 -108 -21t-33 -69v-100h219v-256h-219v-797h-340z" />
    <glyph glyph-name="g" unicode="g" horiz-adv-x="1196" 
d="M440 606v-162q0 -123 28 -159.5t101 -36.5h41q73 0 101 37t28 159v162q0 123 -28 160t-101 37h-41q-73 0 -101 -37t-28 -160zM1059 1053v-985q0 -162 -23 -238.5t-78 -130.5q-47 -46 -130.5 -74t-174.5 -28h-114q-193 0 -292.5 69t-99.5 203v59h322q0 -51 22 -71.5
t78 -20.5h49q70 0 95.5 36t25.5 144v154q-36 -76 -107 -110.5t-194 -34.5q-174 0 -256 96.5t-82 302.5v211q0 223 84.5 327.5t264.5 104.5q100 0 171 -37t105 -108v131h334z" />
    <glyph glyph-name="h" unicode="h" horiz-adv-x="1229" 
d="M147 0v1489h334v-586q22 81 94.5 122.5t192.5 41.5q188 0 260 -80.5t72 -302.5v-684h-334v610q0 115 -26.5 149t-123.5 34q-77 0 -106 -37.5t-29 -165.5v-590h-334z" />
    <glyph glyph-name="i" unicode="i" horiz-adv-x="623" 
d="M141 1227v262h340v-262h-340zM141 0v1053h340v-1053h-340z" />
    <glyph glyph-name="j" unicode="j" horiz-adv-x="633" 
d="M55 -305v246q53 0 75 20t22 72v1020h340v-955q0 -228 -70 -315.5t-242 -87.5h-125zM152 1227v262h340v-262h-340z" />
    <glyph glyph-name="k" unicode="k" horiz-adv-x="1157" 
d="M147 0v1489h334v-832h25l205 396h379l-287 -506l344 -547h-391l-250 422h-25v-422h-334z" />
    <glyph glyph-name="l" unicode="l" horiz-adv-x="623" 
d="M152 0v1489h340v-1489h-340z" />
    <glyph glyph-name="m" unicode="m" horiz-adv-x="1743" 
d="M147 0v1053h320l-4 -150q36 86 102.5 125t177.5 39q121 0 186.5 -39.5t98.5 -130.5q35 89 102.5 129.5t180.5 40.5q170 0 236.5 -80.5t66.5 -302.5v-684h-330v610q0 117 -23.5 150t-101.5 33q-66 0 -90.5 -37.5t-24.5 -165.5v-590h-327v610q0 117 -23.5 150t-101.5 33
q-66 0 -90.5 -37.5t-24.5 -165.5v-590h-330z" />
    <glyph glyph-name="n" unicode="n" horiz-adv-x="1229" 
d="M147 0v1053h324l-4 -150q45 87 115.5 125.5t185.5 38.5q188 0 260 -80.5t72 -302.5v-684h-334v610q0 115 -26.5 149t-123.5 34q-77 0 -106 -37.5t-29 -165.5v-590h-334z" />
    <glyph glyph-name="o" unicode="o" horiz-adv-x="1165" 
d="M436 610v-168q0 -137 25.5 -170.5t101.5 -33.5h41q75 0 100 33t25 171v168q0 139 -25 172t-100 33h-41q-76 0 -101.5 -34t-25.5 -171zM94 635q0 239 93.5 335.5t324.5 96.5h141q231 0 324.5 -96.5t93.5 -335.5v-217q0 -240 -93.5 -336t-324.5 -96h-141q-231 0 -324.5 96
t-93.5 336v217z" />
    <glyph glyph-name="p" unicode="p" horiz-adv-x="1202" 
d="M604 250h39q70 0 96.5 37t26.5 159v162q0 123 -26.5 160t-96.5 37h-39q-70 0 -96.5 -37t-26.5 -160v-162q0 -122 26.5 -159t96.5 -37zM147 -403v1456h324l-4 -150q44 85 114 124.5t177 39.5q180 0 264 -104.5t84 -327.5v-217q0 -223 -85 -327.5t-265 -104.5
q-102 0 -171.5 36t-103.5 107v-532h-334z" />
    <glyph glyph-name="q" unicode="q" horiz-adv-x="1202" 
d="M598 250q69 0 95 36t26 160v162q0 125 -26 161t-95 36h-39q-70 0 -96.5 -37t-26.5 -160v-162q0 -122 26.5 -159t96.5 -37h39zM1055 -403h-336v532q-34 -71 -103.5 -107t-171.5 -36q-180 0 -265 104.5t-85 327.5v217q0 223 85 327.5t265 104.5q107 0 176 -39t113 -125
l-4 150h326v-1456z" />
    <glyph glyph-name="r" unicode="r" horiz-adv-x="1036" 
d="M147 0v1053h324l-4 -150q40 87 100 125.5t156 38.5q159 0 221 -81t62 -302v-94h-314v67q0 76 -22.5 106t-81.5 30q-62 0 -84.5 -35t-22.5 -168v-590h-334z" />
    <glyph glyph-name="s" unicode="s" horiz-adv-x="1169" 
d="M84 301h346q9 -58 37.5 -80t101.5 -22h45q79 0 108.5 22t29.5 80q0 55 -27.5 76.5t-114.5 30.5l-215 20q-137 13 -218 87.5t-81 184.5v84q0 139 100.5 211t292.5 72h207q179 0 269 -68.5t90 -205.5v-23h-332q-2 44 -32.5 65t-94.5 21h-43q-69 0 -98 -23t-29 -77
q0 -45 21 -64t77 -24l238 -23q165 -15 244 -78t79 -178v-90q0 -146 -100 -229.5t-276 -83.5h-224q-203 0 -302 74t-99 227v14z" />
    <glyph glyph-name="t" unicode="t" horiz-adv-x="1051" 
d="M481 -14q-93 0 -160 26t-108 80q-30 39 -42.5 89t-12.5 147v57v424h-121v244h121v202h334v-202h446v-244h-446v-430q0 -96 21.5 -122t86.5 -26q61 0 83 23t22 90v88h278v-119q0 -168 -78.5 -247.5t-245.5 -79.5h-178z" />
    <glyph glyph-name="u" unicode="u" horiz-adv-x="1237" 
d="M1100 1053v-1053h-324l4 150q-44 -87 -114 -125.5t-183 -38.5q-191 0 -263.5 79.5t-72.5 301.5v686h334v-611q0 -115 27 -148.5t123 -33.5q78 0 106.5 36.5t28.5 164.5v592h334z" />
    <glyph glyph-name="v" unicode="v" horiz-adv-x="1128" 
d="M8 1053h361l186 -793l195 793h360l-309 -1053h-498z" />
    <glyph glyph-name="w" unicode="w" horiz-adv-x="1632" 
d="M221 0l-172 1053h336l90 -787l146 787h397l147 -783l86 783h334l-174 -1053h-459l-133 729l-131 -729h-467z" />
    <glyph glyph-name="x" unicode="x" horiz-adv-x="1165" 
d="M47 0l299 551l-260 502h377l127 -359l137 359h367l-263 -506l297 -547h-380l-160 389l-168 -389h-373z" />
    <glyph glyph-name="y" unicode="y" horiz-adv-x="1118" 
d="M305 12l-293 1041h348l203 -783l176 783h359l-330 -1190q-43 -155 -119 -212t-223 -57q-45 0 -156 10q-18 2 -26 3v235h73q49 0 88.5 26.5t49.5 63.5l20 80h-170z" />
    <glyph glyph-name="z" unicode="z" horiz-adv-x="1108" 
d="M98 0v283l502 520h-471v250h870v-283l-491 -516h506v-254h-916z" />
    <glyph glyph-name="braceleft" unicode="{" 
d="M883 1477v-209q-9 0 -25 1t-22 1q-101 0 -136.5 -38.5t-35.5 -162.5v-240q0 -148 -45 -210t-162 -89q117 -27 162 -88t45 -209v-241q0 -123 35 -161t137 -38q6 0 22 1t25 1v-209q-14 0 -39 -1t-37 -1q-100 0 -167 12t-114 37q-57 34 -80.5 91.5t-23.5 199.5v252
q0 137 -51 194.5t-172 57.5q-6 0 -20 -1t-21 -1v209q7 0 21 -1t20 -1q120 0 171.5 58t51.5 196v250q0 143 23.5 201t80.5 92q47 25 114 37t167 12q12 0 37 -1t39 -1z" />
    <glyph glyph-name="bar" unicode="|" 
d="M410 1565h206v-2048h-206v2048z" />
    <glyph glyph-name="braceright" unicode="}" 
d="M143 1477h68q110 0 177 -12t112 -38q57 -32 80.5 -91.5t23.5 -198.5v-252q0 -137 51 -194.5t172 -57.5q6 0 20 1t21 1v-209h-37q-125 0 -176 -56t-51 -194v-252q0 -143 -23.5 -201t-80.5 -90q-47 -25 -114 -37t-167 -12q-12 0 -37 1t-39 1v209q9 0 25 -1t22 -1
q101 0 136.5 38.5t35.5 160.5v239q0 150 45 211.5t162 87.5q-117 27 -162 89t-45 210v242q0 122 -35.5 160.5t-136.5 38.5q-6 0 -22 -1t-25 -1v209z" />
    <glyph glyph-name="asciitilde" unicode="~" horiz-adv-x="1706" 
d="M1530 803v-221q-104 -71 -196.5 -104.5t-182.5 -33.5q-46 0 -92 8t-92 23q-24 8 -71 25q-219 75 -333 75q-85 0 -177.5 -37.5t-207.5 -119.5v221q107 72 204 107.5t183 35.5q117 0 291 -58q3 -1 4 -1q18 -6 55 -19q155 -55 240 -55t175 37t200 117z" />
    <glyph glyph-name="nonbreakingspace" unicode="&#xa0;" horiz-adv-x="1432" 
 />
    <glyph glyph-name="exclamdown" unicode="&#xa1;" horiz-adv-x="717" 
d="M195 1489h327v-356h-327v356zM195 895h327v-895h-327v895z" />
    <glyph glyph-name="cent" unicode="&#xa2;" horiz-adv-x="1432" 
d="M580 313l145 516h-57q-58 0 -80.5 -39t-22.5 -165v-170q0 -57 3.5 -88.5t11.5 -53.5zM678 252h61q80 0 109 33t29 123v22h331v-22q0 -223 -97 -315.5t-337 -92.5h-166l-73 -272h-117l80 282q-144 30 -205.5 126t-61.5 296v217q0 240 93 336t323 96h150l67 246h117
l-68 -252q150 -17 222.5 -113t72.5 -278v-8h-336q0 56 -8.5 85.5t-27.5 45.5z" />
    <glyph glyph-name="sterling" unicode="&#xa3;" horiz-adv-x="1432" 
d="M162 0v330q60 0 95.5 34t35.5 91v133h-168v266h168v225q0 201 122 314.5t339 113.5h106q220 0 347.5 -93.5t127.5 -252.5v-108h-358v53q0 46 -32.5 74t-86.5 28h-70q-57 0 -87.5 -27.5t-30.5 -78.5v-248h383v-266h-383q-2 -102 -30.5 -160t-94.5 -98h821v-330h-1204z" />
    <glyph glyph-name="currency" unicode="&#xa4;" horiz-adv-x="1241" 
d="M623 1161q-113 0 -195 -82t-82 -194q0 -114 81 -194.5t196 -80.5q113 0 194.5 80.5t81.5 194.5q0 112 -81.5 194t-194.5 82zM172 1438l205 -203q54 39 114 58.5t130 19.5t131.5 -19.5t115.5 -58.5l203 203l105 -107l-203 -205q38 -53 57 -113.5t19 -127.5t-19 -127
t-57 -115l203 -205l-105 -104l-203 203q-54 -40 -115 -59t-130 -19q-72 0 -132.5 19t-113.5 59l-205 -203l-104 104l202 205q-38 54 -56.5 113.5t-18.5 128.5q0 67 18.5 127.5t56.5 113.5l-202 205z" />
    <glyph glyph-name="yen" unicode="&#xa5;" horiz-adv-x="1411" 
d="M446 1489l275 -596l278 596h404l-275 -520h250v-119h-313l-111 -209h424v-119h-485v-522h-371v522h-489v119h428l-111 209h-317v119h252l-275 520h436z" />
    <glyph glyph-name="brokenbar" unicode="&#xa6;" 
d="M410 408h206v-758h-206v758zM410 1432h206v-758h-206v758z" />
    <glyph glyph-name="section" unicode="&#xa7;" horiz-adv-x="1049" 
d="M362 696l343 -75q23 9 35 23.5t12 33.5v53q0 23 -16 37.5t-50 22.5l-343 75q-24 -9 -35 -23t-11 -34v-53q0 -23 16 -37.5t49 -22.5zM854 571q69 -29 101 -82.5t32 -136.5v-86q0 -148 -86.5 -215t-277.5 -67h-244q-163 0 -248.5 72t-85.5 210v15l309 -1q2 -44 30 -64.5
t87 -20.5h92q64 0 87.5 20.5t23.5 75.5q0 49 -16.5 68t-75.5 32l-394 90q-87 20 -128.5 65.5t-41.5 121.5v65q0 78 38.5 120.5t136.5 70.5q-62 25 -89.5 75t-27.5 140v84q0 145 89 214.5t277 69.5h191q164 0 249 -72.5t85 -213.5v-11h-309q-2 44 -29.5 64t-87.5 20h-47
q-65 0 -88 -20.5t-23 -77.5q0 -51 17.5 -71.5t74.5 -32.5l379 -82q92 -20 133 -63.5t41 -123.5v-63q0 -77 -41 -122t-133 -67z" />
    <glyph glyph-name="dieresis" unicode="&#xa8;" 
d="M573 1237v246h226v-246h-226zM225 1237v246h226v-246h-226z" />
    <glyph glyph-name="copyright" unicode="&#xa9;" horiz-adv-x="1706" 
d="M1212 897h-188q-8 70 -53 108.5t-119 38.5q-91 0 -143 -81.5t-52 -227.5q0 -147 52 -224t151 -77q73 0 117 42t53 119l193 1q-8 -139 -109 -223t-260 -84q-186 0 -293.5 118t-107.5 322q0 206 109.5 328.5t293.5 122.5q152 0 250.5 -78t105.5 -205zM854 1356
q-128 0 -239.5 -46t-198.5 -134q-89 -90 -136 -203.5t-47 -237.5q0 -125 47 -237t136 -201q88 -88 201 -135t237 -47t237.5 47t204.5 137q88 86 133.5 197t45.5 239q0 126 -46.5 238.5t-134.5 200.5q-89 89 -201 135.5t-239 46.5zM852 1479q152 0 287.5 -56t242.5 -163
q105 -105 160 -240.5t55 -286.5q0 -152 -54.5 -284t-160.5 -236q-111 -108 -248 -165.5t-282 -57.5q-147 0 -280.5 56.5t-241.5 164.5q-107 106 -163 240.5t-56 281.5q0 149 56 284.5t163 244.5q105 106 238 161.5t284 55.5z" />
    <glyph glyph-name="ordfeminine" unicode="&#xaa;" horiz-adv-x="899" 
d="M403 903h68q38 0 57 15.5t19 48.5v39q0 32 -19 47.5t-57 15.5h-68q-39 0 -58 -16t-19 -47v-39q0 -32 19 -48t58 -16zM109 1300q0 107 61 153t205 46h121q165 0 235 -55.5t70 -188.5v-503h-252v67q-31 -39 -75 -58.5t-101 -19.5h-92q-101 0 -155 53.5t-54 151.5v70
q0 95 61.5 145.5t177.5 50.5h68q56 0 99 -16.5t71 -48.5v143q0 34 -16.5 49t-53.5 15h-43q-45 0 -61.5 -12t-16.5 -42h-249z" />
    <glyph glyph-name="guillemotleft" unicode="&#xab;" horiz-adv-x="987" 
d="M465 541l207 303h217l-205 -303l205 -303h-217zM98 541l209 303h215l-205 -303l205 -303h-215z" />
    <glyph glyph-name="logicalnot" unicode="&#xac;" horiz-adv-x="1706" 
d="M254 864h1198v-502h-199v306h-999v196z" />
    <glyph glyph-name="sfthyphen" unicode="&#xad;" horiz-adv-x="688" 
d="M45 389v303h598v-303h-598z" />
    <glyph glyph-name="registered" unicode="&#xae;" horiz-adv-x="1706" 
d="M745 1034v-239h99q88 0 129 28t41 88q0 63 -44 93t-136 30h-89zM545 1161h323q176 0 264.5 -59.5t88.5 -177.5q0 -82 -48 -140t-133 -79l185 -369h-224l-157 338h-99v-338h-200v825zM854 1356q-127 0 -236 -44.5t-196 -131.5q-91 -91 -140 -206.5t-49 -238.5
q0 -124 46 -235.5t133 -198.5q89 -91 203 -139.5t237 -48.5q120 0 233.5 47t206.5 135q87 84 135 196t48 232q0 133 -44.5 245t-132.5 201q-90 93 -202.5 140t-241.5 47zM852 1479q154 0 290.5 -57.5t243.5 -166.5q103 -104 157 -238t54 -284q0 -152 -56 -287.5t-163 -238.5
q-107 -105 -243.5 -161t-282.5 -56q-149 0 -285 58t-243 167q-104 105 -158.5 238.5t-54.5 279.5q0 102 27 198.5t81 188.5q101 170 267 264.5t366 94.5z" />
    <glyph glyph-name="macron" unicode="&#xaf;" 
d="M225 1282v156h574v-156h-574z" />
    <glyph glyph-name="degree" unicode="&#xb0;" horiz-adv-x="674" 
d="M338 1335q-73 0 -124.5 -51t-51.5 -123q0 -74 51 -125t125 -51q72 0 123 52t51 124t-51 123t-123 51zM338 1464q126 0 214.5 -89.5t88.5 -215.5q0 -125 -89 -214t-216 -89q-126 0 -213.5 88t-87.5 215t88.5 216t214.5 89z" />
    <glyph glyph-name="plusminus" unicode="&#xb1;" horiz-adv-x="1706" 
d="M254 197h1198v-199h-1198v199zM752 1223h202v-326h498v-199h-498v-325h-202v325h-498v199h498v326z" />
    <glyph glyph-name="twosuperior" unicode="&#xb2;" horiz-adv-x="944" 
d="M88 596v213q0 95 40 153.5t120 79.5l287 78q44 12 59.5 28t15.5 48v37q0 49 -24.5 67.5t-89.5 18.5h-43q-64 0 -88.5 -19t-24.5 -67v-51h-242v80q0 116 79 177.5t226 61.5h144q146 0 229.5 -62.5t83.5 -170.5v-74q0 -99 -45 -158.5t-135 -81.5l-278 -67
q-34 -10 -45.5 -21.5t-12.5 -36.5v-34h508v-199h-764z" />
    <glyph glyph-name="threesuperior" unicode="&#xb3;" horiz-adv-x="944" 
d="M78 897h248v-43q0 -47 27 -67.5t89 -20.5h45q59 0 87 20t28 62v33q0 43 -27 62.5t-88 19.5h-79v180h77q53 0 79 19t26 59v24q0 39 -24.5 57.5t-78.5 18.5h-43q-56 0 -80 -20.5t-24 -67.5v-31h-246v62q0 115 83 176t239 61h106q157 0 239.5 -57.5t82.5 -167.5v-57
q0 -65 -37 -105t-111 -55q85 -22 123.5 -65.5t38.5 -116.5v-66q0 -107 -83 -166t-234 -59h-150q-146 0 -229.5 61t-83.5 168v82z" />
    <glyph glyph-name="acute" unicode="&#xb4;" 
d="M805 1548l-313 -370h-142l197 370h258z" />
    <glyph glyph-name="mu" unicode="&#xb5;" horiz-adv-x="1249" 
d="M205 1092h289l-76 -435q-15 -80 -23 -151.5t-8 -116.5q0 -93 42 -138.5t128 -45.5q100 0 155.5 82t92.5 291l90 514h289l-193 -1092h-268l18 117q-42 -78 -93.5 -114t-121.5 -36q-67 0 -119 29.5t-94 91.5l-90 -526h-286z" />
    <glyph glyph-name="paragraph" unicode="&#xb6;" 
d="M983 1479v-111h-113v-1368h-151v1368h-158v-1368h-153v784q-167 6 -267 101t-100 245q0 158 107 253.5t284 95.5h551z" />
    <glyph glyph-name="glyph121" unicode="&#xb7;" horiz-adv-x="717" 
d="M168 758q0 82 54.5 136t137.5 54t135 -53.5t52 -136.5q0 -80 -52 -134.5t-128 -54.5q-89 0 -144 52.5t-55 136.5z" />
    <glyph glyph-name="cedilla" unicode="&#xb8;" 
d="M315 -481v129h240q48 0 66 15.5t18 57.5q0 37 -18 52.5t-60 15.5h-100v211h102v-98h99q77 0 114 -44.5t37 -138.5q0 -116 -54 -158t-210 -42h-234z" />
    <glyph glyph-name="onesuperior" unicode="&#xb9;" horiz-adv-x="944" 
d="M111 1225l338 264h290v-893h-247v666l-232 -189z" />
    <glyph glyph-name="ordmasculine" unicode="&#xba;" horiz-adv-x="874" 
d="M328 1180v-119q0 -96 18.5 -119.5t75.5 -23.5h31q56 0 75 23t19 120v119q0 97 -19 120t-75 23h-31q-56 0 -75 -24t-19 -119zM72 1196q0 168 70 235.5t243 67.5h104q173 0 243.5 -67.5t70.5 -235.5v-152q0 -168 -70.5 -235.5t-243.5 -67.5h-104q-173 0 -243 67.5
t-70 235.5v152z" />
    <glyph glyph-name="guillemotright" unicode="&#xbb;" horiz-adv-x="987" 
d="M522 541l-209 -303h-215l205 303l-205 303h215zM889 541l-209 -303h-215l205 303l-205 303h215z" />
    <glyph glyph-name="onequarter" unicode="&#xbc;" horiz-adv-x="2146" 
d="M1495 328h264v331zM1288 160v219l369 455h338v-506h110v-168h-110v-160h-236v160h-471zM559 -18l856 1525h168l-856 -1525h-168zM106 1243l322 246h277v-834h-236v621l-221 -174z" />
    <glyph glyph-name="onehalf" unicode="&#xbd;" horiz-adv-x="2146" 
d="M1327 0v199q0 88 38 142.5t114 74.5l274 73q43 12 57.5 27t14.5 45v33q0 46 -24 64t-85 18h-41q-59 0 -82.5 -18.5t-23.5 -63.5v-47h-234v76q0 107 75.5 164t217.5 57h137q140 0 219.5 -58t79.5 -159v-68q0 -92 -43 -148.5t-129 -76.5l-266 -64q-32 -8 -42.5 -18.5
t-10.5 -34.5v-33h485v-184h-731zM559 -18l856 1525h168l-856 -1525h-168zM106 1243l322 246h277v-834h-236v621l-221 -174z" />
    <glyph glyph-name="threequarters" unicode="&#xbe;" horiz-adv-x="2146" 
d="M1495 328h264v331zM1288 160v219l369 455h338v-506h110v-168h-110v-160h-236v160h-471zM559 -18l856 1525h168l-856 -1525h-168zM74 936h237v-39q0 -44 26 -63t85 -19h43q56 0 83 18.5t27 57.5v31q0 40 -26 57.5t-84 17.5h-76v168h74q51 0 75.5 18t24.5 56v23
q0 36 -23.5 52.5t-74.5 16.5h-41q-53 0 -76.5 -18.5t-23.5 -61.5v-28h-236v55q0 107 79.5 164t227.5 57h103q150 0 228.5 -53t78.5 -156v-55q0 -59 -36 -96.5t-105 -51.5q81 -19 118 -59.5t37 -109.5v-62q0 -100 -79.5 -155.5t-223.5 -55.5h-141q-141 0 -221 57.5t-80 157.5
v76z" />
    <glyph glyph-name="questiondown" unicode="&#xbf;" horiz-adv-x="1178" 
d="M1083 399v-88q0 -155 -100.5 -240t-284.5 -85h-235q-180 0 -282.5 83.5t-102.5 227.5v145q0 43 13 89.5t36 84.5q43 73 210 163q34 18 52 28q37 20 54.5 46.5t17.5 61.5v46h352v-119q0 -89 -30 -143.5t-103 -94.5l-174 -92q-39 -21 -56.5 -40.5t-17.5 -41.5v-92
q0 -43 25 -64.5t75 -21.5h89q56 0 85 23.5t29 68.5v55h348zM813 1493v-356h-352v356h352z" />
    <glyph glyph-name="Agrave" unicode="&#xc0;" horiz-adv-x="1536" 
d="M608 563h326l-148 617h-26zM39 0l428 1489h614l418 -1489h-428l-67 260h-469l-68 -260h-428zM475 1984h258l197 -370h-142z" />
    <glyph glyph-name="Aacute" unicode="&#xc1;" horiz-adv-x="1536" 
d="M608 563h326l-148 617h-26zM39 0l428 1489h614l418 -1489h-428l-67 260h-469l-68 -260h-428zM1061 1984l-313 -370h-142l197 370h258z" />
    <glyph glyph-name="Acircumflex" unicode="&#xc2;" horiz-adv-x="1536" 
d="M608 563h326l-148 617h-26zM39 0l428 1489h614l418 -1489h-428l-67 260h-469l-68 -260h-428zM453 1614l196 370h238l196 -370h-141l-174 217l-176 -217h-139z" />
    <glyph glyph-name="Atilde" unicode="&#xc3;" horiz-adv-x="1536" 
d="M608 563h326l-148 617h-26zM39 0l428 1489h614l418 -1489h-428l-67 260h-469l-68 -260h-428zM1085 1935q-26 -125 -77 -184.5t-131 -59.5q-17 0 -35.5 3.5t-38.5 9.5l-88 24q-19 5 -35 7.5t-31 3.5q-34 0 -55 -18.5t-33 -59.5h-110q24 121 74 178t130 57q25 0 45.5 -3
t40.5 -9l93 -27q12 -4 25.5 -6t29.5 -2q32 0 53.5 21.5t32.5 64.5h110z" />
    <glyph glyph-name="Adieresis" unicode="&#xc4;" horiz-adv-x="1536" 
d="M608 563h326l-148 617h-26zM39 0l428 1489h614l418 -1489h-428l-67 260h-469l-68 -260h-428zM829 1673v246h226v-246h-226zM481 1673v246h226v-246h-226z" />
    <glyph glyph-name="Aring" unicode="&#xc5;" horiz-adv-x="1536" 
d="M651 1706q0 -52 34.5 -86.5t86.5 -34.5t87.5 35t35.5 86t-36 87t-87 36q-52 0 -86.5 -35t-34.5 -88zM608 563h326l-148 617h-26zM39 0l428 1489h154q-56 40 -85.5 96t-29.5 121q0 111 78 188.5t188 77.5q112 0 189 -77.5t77 -188.5q0 -69 -29 -124t-85 -93h157l418 -1489
h-428l-67 260h-469l-68 -260h-428z" />
    <glyph glyph-name="AE" unicode="&#xc6;" horiz-adv-x="2015" 
d="M600 598h313v606h-96zM-39 0l596 1489h1311v-313h-572v-275h555v-278h-555v-308h586v-315h-969v317h-415l-113 -317h-424z" />
    <glyph glyph-name="Ccedilla" unicode="&#xc7;" horiz-adv-x="1446" 
d="M1356 573v-43q0 -291 -128 -419.5t-419 -128.5h-135q-316 0 -443 134.5t-127 473.5v309q0 339 127 473.5t443 134.5h110q314 0 438 -118t124 -416v-29h-398v27q0 102 -47 144t-164 42q-129 0 -172 -50t-43 -241v-245q0 -190 43 -239.5t172 -49.5q121 0 167 45.5t46 161.5
v34h406zM526 -481v129h240q48 0 66 15.5t18 57.5q0 37 -18 52.5t-60 15.5h-100v211h102v-98h99q77 0 114 -44.5t37 -138.5q0 -116 -54 -158t-210 -42h-234z" />
    <glyph glyph-name="Egrave" unicode="&#xc8;" horiz-adv-x="1407" 
d="M152 0v1489h1118v-332h-719v-258h698v-287h-698v-280h735v-332h-1134zM426 1984h258l197 -370h-142z" />
    <glyph glyph-name="Eacute" unicode="&#xc9;" horiz-adv-x="1407" 
d="M152 0v1489h1118v-332h-719v-258h698v-287h-698v-280h735v-332h-1134zM1012 1984l-313 -370h-142l197 370h258z" />
    <glyph glyph-name="Ecircumflex" unicode="&#xca;" horiz-adv-x="1407" 
d="M152 0v1489h1118v-332h-719v-258h698v-287h-698v-280h735v-332h-1134zM404 1614l196 370h238l196 -370h-141l-174 217l-176 -217h-139z" />
    <glyph glyph-name="Edieresis" unicode="&#xcb;" horiz-adv-x="1407" 
d="M152 0v1489h1118v-332h-719v-258h698v-287h-698v-280h735v-332h-1134zM780 1673v246h226v-246h-226zM432 1673v246h226v-246h-226z" />
    <glyph glyph-name="Igrave" unicode="&#xcc;" horiz-adv-x="729" 
d="M164 0v1489h403v-1489h-403zM72 1984h258l197 -370h-142z" />
    <glyph glyph-name="Iacute" unicode="&#xcd;" horiz-adv-x="729" 
d="M164 0v1489h403v-1489h-403zM658 1984l-313 -370h-142l197 370h258z" />
    <glyph glyph-name="Icircumflex" unicode="&#xce;" horiz-adv-x="729" 
d="M164 0v1489h403v-1489h-403zM50 1614l196 370h238l196 -370h-141l-174 217l-176 -217h-139z" />
    <glyph glyph-name="Idieresis" unicode="&#xcf;" horiz-adv-x="729" 
d="M164 0v1489h403v-1489h-403zM426 1673v246h226v-246h-226zM78 1673v246h226v-246h-226z" />
    <glyph glyph-name="Eth" unicode="&#xd0;" horiz-adv-x="1593" 
d="M162 0v647h-152v215h152v627h756q315 0 443 -132t128 -462v-301q0 -330 -128 -462t-443 -132h-756zM559 332h299q137 0 180 49t43 240v245q0 191 -43.5 241t-179.5 50h-299v-295h260v-215h-260v-315z" />
    <glyph glyph-name="Ntilde" unicode="&#xd1;" horiz-adv-x="1741" 
d="M152 0v1489h593l463 -1106v1106h381v-1489h-594l-463 1116v-1116h-380zM1187 1935q-26 -125 -77 -184.5t-131 -59.5q-17 0 -35.5 3.5t-38.5 9.5l-88 24q-19 5 -35 7.5t-31 3.5q-34 0 -55 -18.5t-33 -59.5h-110q24 121 74 178t130 57q25 0 45.5 -3t40.5 -9l93 -27
q12 -4 25.5 -6t29.5 -2q32 0 53.5 21.5t32.5 64.5h110z" />
    <glyph glyph-name="Ograve" unicode="&#xd2;" horiz-adv-x="1546" 
d="M512 866v-245q0 -191 43 -240t180 -49h74q137 0 181 50t44 239v245q0 190 -44 240.5t-181 50.5h-74q-136 0 -179.5 -50t-43.5 -241zM104 899q0 339 127 473.5t443 134.5h196q317 0 444.5 -135t127.5 -473v-309q0 -338 -127.5 -473t-444.5 -135h-196q-316 0 -443 134.5
t-127 473.5v309zM481 1984h258l197 -370h-142z" />
    <glyph glyph-name="Oacute" unicode="&#xd3;" horiz-adv-x="1546" 
d="M512 866v-245q0 -191 43 -240t180 -49h74q137 0 181 50t44 239v245q0 190 -44 240.5t-181 50.5h-74q-136 0 -179.5 -50t-43.5 -241zM104 899q0 339 127 473.5t443 134.5h196q317 0 444.5 -135t127.5 -473v-309q0 -338 -127.5 -473t-444.5 -135h-196q-316 0 -443 134.5
t-127 473.5v309zM1067 1984l-313 -370h-142l197 370h258z" />
    <glyph glyph-name="Ocircumflex" unicode="&#xd4;" horiz-adv-x="1546" 
d="M512 866v-245q0 -191 43 -240t180 -49h74q137 0 181 50t44 239v245q0 190 -44 240.5t-181 50.5h-74q-136 0 -179.5 -50t-43.5 -241zM104 899q0 339 127 473.5t443 134.5h196q317 0 444.5 -135t127.5 -473v-309q0 -338 -127.5 -473t-444.5 -135h-196q-316 0 -443 134.5
t-127 473.5v309zM459 1614l196 370h238l196 -370h-141l-174 217l-176 -217h-139z" />
    <glyph glyph-name="Otilde" unicode="&#xd5;" horiz-adv-x="1546" 
d="M512 866v-245q0 -191 43 -240t180 -49h74q137 0 181 50t44 239v245q0 190 -44 240.5t-181 50.5h-74q-136 0 -179.5 -50t-43.5 -241zM104 899q0 339 127 473.5t443 134.5h196q317 0 444.5 -135t127.5 -473v-309q0 -338 -127.5 -473t-444.5 -135h-196q-316 0 -443 134.5
t-127 473.5v309zM1091 1935q-26 -125 -77 -184.5t-131 -59.5q-17 0 -35.5 3.5t-38.5 9.5l-88 24q-19 5 -35 7.5t-31 3.5q-34 0 -55 -18.5t-33 -59.5h-110q24 121 74 178t130 57q25 0 45.5 -3t40.5 -9l93 -27q12 -4 25.5 -6t29.5 -2q32 0 53.5 21.5t32.5 64.5h110z" />
    <glyph glyph-name="Odieresis" unicode="&#xd6;" horiz-adv-x="1546" 
d="M512 866v-245q0 -191 43 -240t180 -49h74q137 0 181 50t44 239v245q0 190 -44 240.5t-181 50.5h-74q-136 0 -179.5 -50t-43.5 -241zM104 899q0 339 127 473.5t443 134.5h196q317 0 444.5 -135t127.5 -473v-309q0 -338 -127.5 -473t-444.5 -135h-196q-316 0 -443 134.5
t-127 473.5v309zM835 1673v246h226v-246h-226zM487 1673v246h226v-246h-226z" />
    <glyph glyph-name="multiply" unicode="&#xd7;" horiz-adv-x="1706" 
d="M416 1202l450 -450l451 450l141 -139l-450 -453l450 -450l-141 -140l-451 451l-450 -451l-140 140l451 450l-451 453z" />
    <glyph glyph-name="Oslash" unicode="&#xd8;" horiz-adv-x="1546" 
d="M512 612l477 496q-24 26 -63.5 37.5t-116.5 11.5h-74q-136 0 -179.5 -50t-43.5 -241v-254zM1034 862l-470 -486q17 -23 58 -33.5t113 -10.5h74q137 0 181 50t44 239v241zM104 899q0 339 127 473.5t443 134.5h196q152 0 246.5 -24t159.5 -78l119 119l143 -138l-141 -145
q23 -61 34 -140.5t11 -201.5v-309q0 -338 -127.5 -473t-444.5 -135h-196q-152 0 -244.5 23t-153.5 75l-118 -125l-146 141l140 144q-26 53 -37 129.5t-11 220.5v309z" />
    <glyph glyph-name="Ugrave" unicode="&#xd9;" horiz-adv-x="1587" 
d="M129 1489h397v-868q0 -181 45.5 -235t186.5 -54h73q140 0 185 53t45 236v868h397v-899q0 -200 -24.5 -294t-83.5 -163q-70 -81 -174.5 -116t-282.5 -35h-197q-178 0 -282.5 35t-173.5 116q-60 70 -85.5 165.5t-25.5 291.5v899zM502 1984h258l197 -370h-142z" />
    <glyph glyph-name="Uacute" unicode="&#xda;" horiz-adv-x="1587" 
d="M129 1489h397v-868q0 -181 45.5 -235t186.5 -54h73q140 0 185 53t45 236v868h397v-899q0 -200 -24.5 -294t-83.5 -163q-70 -81 -174.5 -116t-282.5 -35h-197q-178 0 -282.5 35t-173.5 116q-60 70 -85.5 165.5t-25.5 291.5v899zM1088 1984l-313 -370h-142l197 370h258z
" />
    <glyph glyph-name="Ucircumflex" unicode="&#xdb;" horiz-adv-x="1587" 
d="M129 1489h397v-868q0 -181 45.5 -235t186.5 -54h73q140 0 185 53t45 236v868h397v-899q0 -200 -24.5 -294t-83.5 -163q-70 -81 -174.5 -116t-282.5 -35h-197q-178 0 -282.5 35t-173.5 116q-60 70 -85.5 165.5t-25.5 291.5v899zM480 1614l196 370h238l196 -370h-141
l-174 217l-176 -217h-139z" />
    <glyph glyph-name="Udieresis" unicode="&#xdc;" horiz-adv-x="1587" 
d="M129 1489h397v-868q0 -181 45.5 -235t186.5 -54h73q140 0 185 53t45 236v868h397v-899q0 -200 -24.5 -294t-83.5 -163q-70 -81 -174.5 -116t-282.5 -35h-197q-178 0 -282.5 35t-173.5 116q-60 70 -85.5 165.5t-25.5 291.5v899zM856 1673v246h226v-246h-226zM508 1673v246
h226v-246h-226z" />
    <glyph glyph-name="Yacute" unicode="&#xdd;" horiz-adv-x="1411" 
d="M-4 1489h450l265 -574l260 574h446l-510 -967v-522h-399v522zM1000 1984l-313 -370h-142l197 370h258z" />
    <glyph glyph-name="Thorn" unicode="&#xde;" horiz-adv-x="1473" 
d="M551 956v-428h278q97 0 129.5 35.5t32.5 143.5v84q0 88 -41.5 126.5t-136.5 38.5h-262zM152 1489h399v-199h299q294 0 421.5 -116t127.5 -381v-99q0 -265 -127 -380t-422 -115h-299v-199h-399v1489z" />
    <glyph glyph-name="germandbls" unicode="&#xdf;" horiz-adv-x="1184" 
d="M143 0v1108q0 190 95 285.5t284 95.5h125q174 0 268.5 -81.5t94.5 -229.5v-113q0 -93 -31 -142t-105 -75q116 -20 170 -94.5t54 -214.5v-183q0 -199 -86.5 -284.5t-286.5 -85.5q-30 0 -60.5 2.5t-62.5 7.5v245q5 0 12.5 -0.5t22.5 -0.5q64 0 90.5 33t26.5 114v191
q0 71 -33.5 100t-118.5 29v214q50 5 70 27t20 74v111q0 56 -24.5 81t-79.5 25q-58 0 -80.5 -29.5t-22.5 -111.5v-1098h-342z" />
    <glyph glyph-name="agrave" unicode="&#xe0;" horiz-adv-x="1198" 
d="M537 215h92q50 0 75 23t25 69v55q0 47 -25 70t-75 23h-92q-51 0 -77 -23.5t-26 -69.5v-55q0 -46 26 -69t77 -23zM143 785q2 151 84 216.5t273 65.5h159q222 0 315 -79t93 -267v-721h-336v96q-42 -56 -100 -83t-135 -27h-121q-135 0 -208 76t-73 217v98q0 136 83 209
t237 73h92q72 0 130 -24.5t95 -71.5v205q0 49 -21.5 70.5t-70.5 21.5h-57q-61 0 -83 -16.5t-22 -59.5zM323 1548h258l197 -370h-142z" />
    <glyph glyph-name="aacute" unicode="&#xe1;" horiz-adv-x="1198" 
d="M537 215h92q50 0 75 23t25 69v55q0 47 -25 70t-75 23h-92q-51 0 -77 -23.5t-26 -69.5v-55q0 -46 26 -69t77 -23zM143 785q2 151 84 216.5t273 65.5h159q222 0 315 -79t93 -267v-721h-336v96q-42 -56 -100 -83t-135 -27h-121q-135 0 -208 76t-73 217v98q0 136 83 209
t237 73h92q72 0 130 -24.5t95 -71.5v205q0 49 -21.5 70.5t-70.5 21.5h-57q-61 0 -83 -16.5t-22 -59.5zM909 1548l-313 -370h-142l197 370h258z" />
    <glyph glyph-name="acircumflex" unicode="&#xe2;" horiz-adv-x="1198" 
d="M537 215h92q50 0 75 23t25 69v55q0 47 -25 70t-75 23h-92q-51 0 -77 -23.5t-26 -69.5v-55q0 -46 26 -69t77 -23zM143 785q2 151 84 216.5t273 65.5h159q222 0 315 -79t93 -267v-721h-336v96q-42 -56 -100 -83t-135 -27h-121q-135 0 -208 76t-73 217v98q0 136 83 209
t237 73h92q72 0 130 -24.5t95 -71.5v205q0 49 -21.5 70.5t-70.5 21.5h-57q-61 0 -83 -16.5t-22 -59.5zM301 1178l196 370h238l196 -370h-141l-174 217l-176 -217h-139z" />
    <glyph glyph-name="atilde" unicode="&#xe3;" horiz-adv-x="1198" 
d="M537 215h92q50 0 75 23t25 69v55q0 47 -25 70t-75 23h-92q-51 0 -77 -23.5t-26 -69.5v-55q0 -46 26 -69t77 -23zM143 785q2 151 84 216.5t273 65.5h159q222 0 315 -79t93 -267v-721h-336v96q-42 -56 -100 -83t-135 -27h-121q-135 0 -208 76t-73 217v98q0 136 83 209
t237 73h92q72 0 130 -24.5t95 -71.5v205q0 49 -21.5 70.5t-70.5 21.5h-57q-61 0 -83 -16.5t-22 -59.5zM933 1499q-26 -125 -77 -184.5t-131 -59.5q-17 0 -35.5 3.5t-38.5 9.5l-88 24q-19 5 -35 7.5t-31 3.5q-34 0 -55 -18.5t-33 -59.5h-110q24 121 74 178t130 57
q25 0 45.5 -3t40.5 -9l93 -27q12 -4 25.5 -6t29.5 -2q32 0 53.5 21.5t32.5 64.5h110z" />
    <glyph glyph-name="adieresis" unicode="&#xe4;" horiz-adv-x="1198" 
d="M537 215h92q50 0 75 23t25 69v55q0 47 -25 70t-75 23h-92q-51 0 -77 -23.5t-26 -69.5v-55q0 -46 26 -69t77 -23zM143 785q2 151 84 216.5t273 65.5h159q222 0 315 -79t93 -267v-721h-336v96q-42 -56 -100 -83t-135 -27h-121q-135 0 -208 76t-73 217v98q0 136 83 209
t237 73h92q72 0 130 -24.5t95 -71.5v205q0 49 -21.5 70.5t-70.5 21.5h-57q-61 0 -83 -16.5t-22 -59.5zM677 1237v246h226v-246h-226zM329 1237v246h226v-246h-226z" />
    <glyph glyph-name="aring" unicode="&#xe5;" horiz-adv-x="1198" 
d="M506 1399q0 -52 34 -86.5t87 -34.5q52 0 87.5 35t35.5 86q0 50 -36.5 86.5t-86.5 36.5q-52 0 -86.5 -35.5t-34.5 -87.5zM362 1399q0 111 77 188.5t188 77.5t188.5 -77.5t77.5 -188.5q0 -112 -77 -189t-189 -77t-188.5 76.5t-76.5 189.5zM537 215h92q50 0 75 23t25 69v55
q0 47 -25 70t-75 23h-92q-51 0 -77 -23.5t-26 -69.5v-55q0 -46 26 -69t77 -23zM143 785q2 151 84 216.5t273 65.5h159q222 0 315 -79t93 -267v-721h-336v96q-42 -56 -100 -83t-135 -27h-121q-135 0 -208 76t-73 217v98q0 136 83 209t237 73h94q71 0 128.5 -24.5t94.5 -71.5
v205q0 49 -21.5 70.5t-70.5 21.5h-57q-61 0 -83 -16.5t-22 -59.5z" />
    <glyph glyph-name="ae" unicode="&#xe6;" horiz-adv-x="1786" 
d="M1049 645h313v37q0 105 -27.5 139.5t-107.5 34.5h-43q-79 0 -107 -33.5t-28 -130.5v-47zM143 785q2 151 84 216.5t273 65.5h159q97 0 151 -20t95 -68q34 47 84.5 67.5t140.5 20.5h142q230 0 324 -96.5t94 -335.5v-166h-641v-129q0 -68 26 -96.5t90 -28.5h17h41
q71 0 99 23.5t34 82.5l330 1q-13 -179 -109.5 -257.5t-304.5 -78.5h-142q-144 0 -229 34t-133 109q-55 -75 -120 -109t-152 -34h-121q-135 0 -208 76t-73 217v98q0 136 83 209t237 73h92q72 0 130 -24.5t95 -71.5v205q0 49 -21.5 70.5t-70.5 21.5h-57q-61 0 -83 -16.5
t-22 -59.5zM537 215h92q50 0 75 23t25 69v55q0 47 -25 70t-75 23h-92q-51 0 -77 -23.5t-26 -69.5v-55q0 -46 26 -69t77 -23z" />
    <glyph glyph-name="ccedilla" unicode="&#xe7;" horiz-adv-x="1159" 
d="M1071 416q0 -8 1 -24.5t1 -24.5q0 -205 -96 -293t-324 -88h-141q-231 0 -324.5 96t-93.5 336v217q0 239 93.5 335.5t324.5 96.5h141q226 0 322 -87t96 -290v-28h-336v10q0 81 -27.5 112t-99.5 31h-45q-76 0 -101.5 -34t-25.5 -171v-168q0 -137 25.5 -170.5t101.5 -33.5
h45q73 0 100 32.5t27 120.5v25h336zM383 -481v129h240q48 0 66 15.5t18 57.5q0 37 -18 52.5t-60 15.5h-100v211h102v-98h99q77 0 114 -44.5t37 -138.5q0 -116 -54 -158t-210 -42h-234z" />
    <glyph glyph-name="egrave" unicode="&#xe8;" horiz-adv-x="1163" 
d="M1067 322q-12 -179 -109 -257.5t-305 -78.5h-141q-231 0 -324.5 96t-93.5 336v217q0 239 93.5 335.5t324.5 96.5h141q231 0 324.5 -96.5t93.5 -335.5v-166h-641v-129q0 -71 29.5 -100t103.5 -29h43q69 0 97 24t34 87h330zM430 645h313v37q0 105 -27.5 139.5t-107.5 34.5
h-43q-78 0 -106.5 -33.5t-28.5 -130.5v-47zM289 1548h258l197 -370h-142z" />
    <glyph glyph-name="eacute" unicode="&#xe9;" horiz-adv-x="1163" 
d="M1067 322q-12 -179 -109 -257.5t-305 -78.5h-141q-231 0 -324.5 96t-93.5 336v217q0 239 93.5 335.5t324.5 96.5h141q231 0 324.5 -96.5t93.5 -335.5v-166h-641v-129q0 -71 29.5 -100t103.5 -29h43q69 0 97 24t34 87h330zM430 645h313v37q0 105 -27.5 139.5t-107.5 34.5
h-43q-78 0 -106.5 -33.5t-28.5 -130.5v-47zM875 1548l-313 -370h-142l197 370h258z" />
    <glyph glyph-name="ecircumflex" unicode="&#xea;" horiz-adv-x="1163" 
d="M1067 322q-12 -179 -109 -257.5t-305 -78.5h-141q-231 0 -324.5 96t-93.5 336v217q0 239 93.5 335.5t324.5 96.5h141q231 0 324.5 -96.5t93.5 -335.5v-166h-641v-129q0 -71 29.5 -100t103.5 -29h43q69 0 97 24t34 87h330zM430 645h313v37q0 105 -27.5 139.5t-107.5 34.5
h-43q-78 0 -106.5 -33.5t-28.5 -130.5v-47zM267 1178l196 370h238l196 -370h-141l-174 217l-176 -217h-139z" />
    <glyph glyph-name="edieresis" unicode="&#xeb;" horiz-adv-x="1163" 
d="M1067 322q-12 -179 -109 -257.5t-305 -78.5h-141q-231 0 -324.5 96t-93.5 336v217q0 239 93.5 335.5t324.5 96.5h141q231 0 324.5 -96.5t93.5 -335.5v-166h-641v-129q0 -71 29.5 -100t103.5 -29h43q69 0 97 24t34 87h330zM430 645h313v37q0 105 -27.5 139.5t-107.5 34.5
h-43q-78 0 -106.5 -33.5t-28.5 -130.5v-47zM643 1237v246h226v-246h-226zM295 1237v246h226v-246h-226z" />
    <glyph glyph-name="igrave" unicode="&#xec;" horiz-adv-x="623" 
d="M141 0v1053h340v-1053h-340zM18 1548h258l197 -370h-142z" />
    <glyph glyph-name="iacute" unicode="&#xed;" horiz-adv-x="623" 
d="M141 0v1053h340v-1053h-340zM604 1548l-313 -370h-142l197 370h258z" />
    <glyph glyph-name="icircumflex" unicode="&#xee;" horiz-adv-x="623" 
d="M141 0v1053h340v-1053h-340zM-4 1178l196 370h238l196 -370h-141l-174 217l-176 -217h-139z" />
    <glyph glyph-name="idieresis" unicode="&#xef;" horiz-adv-x="623" 
d="M141 0v1053h340v-1053h-340zM372 1237v246h226v-246h-226zM24 1237v246h226v-246h-226z" />
    <glyph glyph-name="eth" unicode="&#xf0;" horiz-adv-x="1165" 
d="M707 1489l51 -72l186 58l41 -136l-141 -45l41 -59q98 -139 143 -278.5t45 -305.5v-233q0 -238 -94.5 -335t-325.5 -97h-141q-231 0 -324.5 96t-93.5 336v217q0 221 85.5 325.5t266.5 104.5q102 0 164.5 -30.5t116.5 -104.5q-33 70 -73.5 141.5t-88.5 142.5l-305 -96
l-41 135l266 82l-96 154h318zM436 610v-168q0 -137 25.5 -170.5t101.5 -33.5h41q75 0 100 33t25 171v168q0 136 -25 170.5t-100 34.5h-41q-76 0 -101.5 -34t-25.5 -171z" />
    <glyph glyph-name="ntilde" unicode="&#xf1;" horiz-adv-x="1229" 
d="M147 0v1053h324l-4 -150q45 87 115.5 125.5t185.5 38.5q188 0 260 -80.5t72 -302.5v-684h-334v610q0 115 -26.5 149t-123.5 34q-77 0 -106 -37.5t-29 -165.5v-590h-334zM948 1499q-26 -125 -77 -184.5t-131 -59.5q-17 0 -35.5 3.5t-38.5 9.5l-88 24q-19 5 -35 7.5
t-31 3.5q-34 0 -55 -18.5t-33 -59.5h-110q24 121 74 178t130 57q25 0 45.5 -3t40.5 -9l93 -27q12 -4 25.5 -6t29.5 -2q32 0 53.5 21.5t32.5 64.5h110z" />
    <glyph glyph-name="ograve" unicode="&#xf2;" horiz-adv-x="1165" 
d="M436 610v-168q0 -137 25.5 -170.5t101.5 -33.5h41q75 0 100 33t25 171v168q0 139 -25 172t-100 33h-41q-76 0 -101.5 -34t-25.5 -171zM94 635q0 239 93.5 335.5t324.5 96.5h141q231 0 324.5 -96.5t93.5 -335.5v-217q0 -240 -93.5 -336t-324.5 -96h-141q-231 0 -324.5 96
t-93.5 336v217zM291 1548h258l197 -370h-142z" />
    <glyph glyph-name="oacute" unicode="&#xf3;" horiz-adv-x="1165" 
d="M436 610v-168q0 -137 25.5 -170.5t101.5 -33.5h41q75 0 100 33t25 171v168q0 139 -25 172t-100 33h-41q-76 0 -101.5 -34t-25.5 -171zM94 635q0 239 93.5 335.5t324.5 96.5h141q231 0 324.5 -96.5t93.5 -335.5v-217q0 -240 -93.5 -336t-324.5 -96h-141q-231 0 -324.5 96
t-93.5 336v217zM877 1548l-313 -370h-142l197 370h258z" />
    <glyph glyph-name="ocircumflex" unicode="&#xf4;" horiz-adv-x="1165" 
d="M436 610v-168q0 -137 25.5 -170.5t101.5 -33.5h41q75 0 100 33t25 171v168q0 139 -25 172t-100 33h-41q-76 0 -101.5 -34t-25.5 -171zM94 635q0 239 93.5 335.5t324.5 96.5h141q231 0 324.5 -96.5t93.5 -335.5v-217q0 -240 -93.5 -336t-324.5 -96h-141q-231 0 -324.5 96
t-93.5 336v217zM269 1178l196 370h238l196 -370h-141l-174 217l-176 -217h-139z" />
    <glyph glyph-name="otilde" unicode="&#xf5;" horiz-adv-x="1165" 
d="M436 610v-168q0 -137 25.5 -170.5t101.5 -33.5h41q75 0 100 33t25 171v168q0 139 -25 172t-100 33h-41q-76 0 -101.5 -34t-25.5 -171zM94 635q0 239 93.5 335.5t324.5 96.5h141q231 0 324.5 -96.5t93.5 -335.5v-217q0 -240 -93.5 -336t-324.5 -96h-141q-231 0 -324.5 96
t-93.5 336v217zM901 1499q-26 -125 -77 -184.5t-131 -59.5q-17 0 -35.5 3.5t-38.5 9.5l-88 24q-19 5 -35 7.5t-31 3.5q-34 0 -55 -18.5t-33 -59.5h-110q24 121 74 178t130 57q25 0 45.5 -3t40.5 -9l93 -27q12 -4 25.5 -6t29.5 -2q32 0 53.5 21.5t32.5 64.5h110z" />
    <glyph glyph-name="odieresis" unicode="&#xf6;" horiz-adv-x="1165" 
d="M436 610v-168q0 -137 25.5 -170.5t101.5 -33.5h41q75 0 100 33t25 171v168q0 139 -25 172t-100 33h-41q-76 0 -101.5 -34t-25.5 -171zM94 635q0 239 93.5 335.5t324.5 96.5h141q231 0 324.5 -96.5t93.5 -335.5v-217q0 -240 -93.5 -336t-324.5 -96h-141q-231 0 -324.5 96
t-93.5 336v217zM645 1237v246h226v-246h-226zM297 1237v246h226v-246h-226z" />
    <glyph glyph-name="divide" unicode="&#xf7;" horiz-adv-x="1706" 
d="M854 369q62 0 107 -45t45 -107q0 -61 -45 -105t-107 -44q-63 0 -107.5 43t-44.5 106t44.5 107.5t107.5 44.5zM254 711h1198v-199h-1198v199zM854 1155q62 0 107 -44.5t45 -106.5q0 -63 -44.5 -107.5t-107.5 -44.5t-107.5 44.5t-44.5 107.5t44.5 107t107.5 44z" />
    <glyph glyph-name="oslash" unicode="&#xf8;" horiz-adv-x="1165" 
d="M436 492l279 270q-12 29 -37 41t-74 12h-41q-76 0 -101.5 -34t-25.5 -171v-118zM729 575l-283 -272q10 -36 36 -50.5t81 -14.5h41q75 0 100 33t25 171v133zM94 635q0 239 93.5 335.5t324.5 96.5h141q111 0 181.5 -17.5t119.5 -56.5l97 94l98 -102l-111 -108
q17 -43 25 -101t8 -141v-217q0 -240 -93.5 -336t-324.5 -96h-141q-120 0 -193 20.5t-116 65.5l-86 -86l-101 102l105 100q-14 40 -20.5 97.5t-6.5 132.5v217z" />
    <glyph glyph-name="ugrave" unicode="&#xf9;" horiz-adv-x="1237" 
d="M1100 1053v-1053h-324l4 150q-44 -87 -114 -125.5t-183 -38.5q-191 0 -263.5 79.5t-72.5 301.5v686h334v-611q0 -115 27 -148.5t123 -33.5q78 0 106.5 36.5t28.5 164.5v592h334zM346 1548h258l197 -370h-142z" />
    <glyph glyph-name="uacute" unicode="&#xfa;" horiz-adv-x="1237" 
d="M1100 1053v-1053h-324l4 150q-44 -87 -114 -125.5t-183 -38.5q-191 0 -263.5 79.5t-72.5 301.5v686h334v-611q0 -115 27 -148.5t123 -33.5q78 0 106.5 36.5t28.5 164.5v592h334zM932 1548l-313 -370h-142l197 370h258z" />
    <glyph glyph-name="ucircumflex" unicode="&#xfb;" horiz-adv-x="1237" 
d="M1100 1053v-1053h-324l4 150q-44 -87 -114 -125.5t-183 -38.5q-191 0 -263.5 79.5t-72.5 301.5v686h334v-611q0 -115 27 -148.5t123 -33.5q78 0 106.5 36.5t28.5 164.5v592h334zM324 1178l196 370h238l196 -370h-141l-174 217l-176 -217h-139z" />
    <glyph glyph-name="udieresis" unicode="&#xfc;" horiz-adv-x="1237" 
d="M1100 1053v-1053h-324l4 150q-44 -87 -114 -125.5t-183 -38.5q-191 0 -263.5 79.5t-72.5 301.5v686h334v-611q0 -115 27 -148.5t123 -33.5q78 0 106.5 36.5t28.5 164.5v592h334zM700 1237v246h226v-246h-226zM352 1237v246h226v-246h-226z" />
    <glyph glyph-name="yacute" unicode="&#xfd;" horiz-adv-x="1118" 
d="M305 12l-293 1041h348l203 -783l176 783h359l-330 -1190q-43 -155 -119 -212t-223 -57q-45 0 -156 10q-18 2 -26 3v235h73q49 0 88.5 26.5t49.5 63.5l20 80h-170zM852 1548l-313 -370h-142l197 370h258z" />
    <glyph glyph-name="thorn" unicode="&#xfe;" horiz-adv-x="1202" 
d="M481 608v-162q0 -122 27 -159t96 -37h39q70 0 96.5 37t26.5 159v162q0 122 -26.5 159.5t-96.5 37.5h-39q-69 0 -96 -37.5t-27 -159.5zM147 1489h334v-567q35 73 106 109t181 36q172 0 255 -106t83 -326v-217q0 -220 -83 -326t-255 -106q-111 0 -181.5 35t-105.5 108v-532
h-334v1892z" />
    <glyph glyph-name="ydieresis" unicode="&#xff;" horiz-adv-x="1118" 
d="M305 12l-293 1041h348l203 -783l176 783h359l-330 -1190q-43 -155 -119 -212t-223 -57q-45 0 -156 10q-18 2 -26 3v235h73q49 0 88.5 26.5t49.5 63.5l20 80h-170zM620 1237v246h226v-246h-226zM272 1237v246h226v-246h-226z" />
    <glyph glyph-name="Cacute" unicode="&#x106;" horiz-adv-x="1446" 
d="M1356 573v-43q0 -291 -128 -419.5t-419 -128.5h-135q-316 0 -443 134.5t-127 473.5v309q0 339 127 473.5t443 134.5h110q314 0 438 -118t124 -416v-29h-398v27q0 102 -47 144t-164 42q-129 0 -172 -50t-43 -241v-245q0 -190 43 -239.5t172 -49.5q121 0 167 45.5t46 161.5
v34h406zM1016 1984l-313 -370h-142l197 370h258z" />
    <glyph glyph-name="cacute" unicode="&#x107;" horiz-adv-x="1159" 
d="M1071 416q0 -8 1 -24.5t1 -24.5q0 -205 -96 -293t-324 -88h-141q-231 0 -324.5 96t-93.5 336v217q0 239 93.5 335.5t324.5 96.5h141q226 0 322 -87t96 -290v-28h-336v10q0 81 -27.5 112t-99.5 31h-45q-76 0 -101.5 -34t-25.5 -171v-168q0 -137 25.5 -170.5t101.5 -33.5
h45q73 0 100 32.5t27 120.5v25h336zM873 1548l-313 -370h-142l197 370h258z" />
    <glyph glyph-name="Ccaron" unicode="&#x10c;" horiz-adv-x="1446" 
d="M1356 573v-43q0 -291 -128 -419.5t-419 -128.5h-135q-316 0 -443 134.5t-127 473.5v309q0 339 127 473.5t443 134.5h110q314 0 438 -118t124 -416v-29h-398v27q0 102 -47 144t-164 42q-129 0 -172 -50t-43 -241v-245q0 -190 43 -239.5t172 -49.5q121 0 167 45.5t46 161.5
v34h406zM408 1984h139l176 -219l174 219h141l-196 -370h-238z" />
    <glyph glyph-name="ccaron" unicode="&#x10d;" horiz-adv-x="1159" 
d="M1071 416q0 -8 1 -24.5t1 -24.5q0 -205 -96 -293t-324 -88h-141q-231 0 -324.5 96t-93.5 336v217q0 239 93.5 335.5t324.5 96.5h141q226 0 322 -87t96 -290v-28h-336v10q0 81 -27.5 112t-99.5 31h-45q-76 0 -101.5 -34t-25.5 -171v-168q0 -137 25.5 -170.5t101.5 -33.5
h45q73 0 100 32.5t27 120.5v25h336zM265 1548h139l176 -219l174 219h141l-196 -370h-238z" />
    <glyph glyph-name="dcroat" unicode="&#x111;" horiz-adv-x="1210" 
d="M598 803h-39q-69 0 -96 -36.5t-27 -160.5v-162q0 -123 27 -159.5t96 -36.5h39q68 0 94.5 35.5t26.5 160.5v162q0 126 -26.5 161.5t-94.5 35.5zM1055 1489v-139h147v-142h-147v-1208h-326l4 150q-45 -87 -113 -125.5t-176 -38.5q-180 0 -265 104.5t-85 327.5v217
q0 223 85 327.5t265 104.5q102 0 171.5 -37t103.5 -108v286h-283v142h283v139h336z" />
    <glyph glyph-name="Gbreve" unicode="&#x11e;" horiz-adv-x="1540" 
d="M1438 1024h-399q-2 70 -51.5 101.5t-160.5 31.5h-100q-137 0 -181 -50t-44 -241v-245q0 -189 44 -239t181 -50h111q118 0 164.5 33t46.5 114v58h-228v278h617v-254q0 -302 -132.5 -440.5t-418.5 -138.5h-271q-252 0 -382 159.5t-130 470.5v226q0 348 137 508.5t433 160.5
h217q240 0 393.5 -119.5t153.5 -300.5v-63zM461 1949h123q6 -76 50.5 -111.5t135.5 -35.5q90 0 134 35t50 112h123q-11 -156 -85 -229.5t-222 -73.5q-147 0 -222.5 74t-86.5 229z" />
    <glyph glyph-name="gbreve" unicode="&#x11f;" horiz-adv-x="1196" 
d="M440 606v-162q0 -123 28 -159.5t101 -36.5h41q73 0 101 37t28 159v162q0 123 -28 160t-101 37h-41q-73 0 -101 -37t-28 -160zM1059 1053v-985q0 -162 -23 -238.5t-78 -130.5q-47 -46 -130.5 -74t-174.5 -28h-114q-193 0 -292.5 69t-99.5 203v59h322q0 -51 22 -71.5
t78 -20.5h49q70 0 95.5 36t25.5 144v154q-36 -76 -107 -110.5t-194 -34.5q-174 0 -256 96.5t-82 302.5v211q0 223 84.5 327.5t264.5 104.5q100 0 171 -37t105 -108v131h334zM289 1513h123q6 -76 50.5 -111.5t135.5 -35.5q90 0 134 35t50 112h123q-11 -156 -85 -229.5
t-222 -73.5q-147 0 -222.5 74t-86.5 229z" />
    <glyph glyph-name="Idotaccent" unicode="&#x130;" horiz-adv-x="729" 
d="M164 0v1489h403v-1489h-403zM248 1667v258h236v-258h-236z" />
    <glyph glyph-name="dotlessi" unicode="&#x131;" horiz-adv-x="623" 
d="M141 0v1053h340v-1053h-340z" />
    <glyph glyph-name="Lslash" unicode="&#x141;" horiz-adv-x="1264" 
d="M166 0v522l-156 -108v260l156 110v705h401v-469l334 231v-260l-334 -231v-414h668v-346h-1069z" />
    <glyph glyph-name="lslash" unicode="&#x142;" horiz-adv-x="643" 
d="M162 0v588l-152 -103v172l152 99v733h338v-551l153 102v-170l-153 -100v-770h-338z" />
    <glyph glyph-name="OE" unicode="&#x152;" horiz-adv-x="2071" 
d="M1067 172q-61 -102 -155.5 -146t-260.5 -44q-297 0 -422 137.5t-125 470.5v309q0 328 124 468t411 140q158 0 257.5 -40t170.5 -132v154h887v-324h-539v-270h514v-279h-514v-294h555v-322h-903v172zM512 872v-258q0 -198 43 -248.5t180 -50.5h74q138 0 181.5 51t43.5 248
v258q0 199 -43.5 250.5t-181.5 51.5h-74q-138 0 -180.5 -56.5t-42.5 -245.5z" />
    <glyph glyph-name="oe" unicode="&#x153;" horiz-adv-x="1831" 
d="M1274 856h-51q-80 0 -109 -34.5t-29 -133.5v-43h324v37q0 105 -27.5 139.5t-107.5 34.5zM1272 211q69 0 98 24.5t35 86.5h328q-8 -176 -106.5 -256t-305.5 -80h-168q-106 0 -162.5 36.5t-77.5 118.5q-29 -77 -98 -116t-176 -39h-127q-231 0 -324.5 96t-93.5 336v217
q0 239 93.5 335.5t324.5 96.5h127q114 0 177.5 -32t96.5 -105q31 67 100.5 102t174.5 35h133q230 0 323 -96t93 -336v-166h-652v-129q0 -71 30 -100t106 -29h51zM436 610v-168q0 -135 27.5 -169.5t109.5 -34.5h43q83 0 110.5 34.5t27.5 169.5v168q0 137 -27.5 171t-110.5 34
h-45q-81 0 -108 -33.5t-27 -171.5z" />
    <glyph glyph-name="Scedilla" unicode="&#x15e;" horiz-adv-x="1419" 
d="M86 461h383v-15q0 -81 43 -113t152 -32h100q91 0 127.5 24.5t36.5 86.5v65q0 53 -29 76t-131 35l-324 35q-181 20 -264.5 113.5t-83.5 277.5v92q0 104 33 185.5t96 133.5q54 45 131 63.5t230 18.5h239q223 0 341 -90t118 -260v-102h-383v16q0 67 -31.5 93t-113.5 26h-92
q-95 0 -130.5 -22.5t-35.5 -77.5v-62q0 -82 161 -100v0l295 -33q191 -22 285 -111.5t94 -251.5v-143q0 -185 -115 -296t-309 -111h-325q-261 0 -379.5 90t-118.5 286v103zM514 -481v129h240q48 0 66 15.5t18 57.5q0 37 -18 52.5t-60 15.5h-100v211h102v-98h99
q77 0 114 -44.5t37 -138.5q0 -116 -54 -158t-210 -42h-234z" />
    <glyph glyph-name="scedilla" unicode="&#x15f;" horiz-adv-x="1169" 
d="M84 301h346q9 -58 37.5 -80t101.5 -22h45q79 0 108.5 22t29.5 80q0 55 -27.5 76.5t-114.5 30.5l-215 20q-137 13 -218 87.5t-81 184.5v84q0 139 100.5 211t292.5 72h207q179 0 269 -68.5t90 -205.5v-23h-332q-2 44 -32.5 65t-94.5 21h-43q-69 0 -98 -23t-29 -77
q0 -45 21 -64t77 -24l238 -23q165 -15 244 -78t79 -178v-90q0 -146 -100 -229.5t-276 -83.5h-224q-203 0 -302 74t-99 227v14zM389 -481v129h240q48 0 66 15.5t18 57.5q0 37 -18 52.5t-60 15.5h-100v211h102v-98h99q77 0 114 -44.5t37 -138.5q0 -116 -54 -158t-210 -42h-234
z" />
    <glyph glyph-name="Scaron" unicode="&#x160;" horiz-adv-x="1419" 
d="M86 461h383v-15q0 -81 43 -113t152 -32h100q91 0 127.5 24.5t36.5 86.5v65q0 53 -29 76t-131 35l-324 35q-181 20 -264.5 113.5t-83.5 277.5v92q0 104 33 185.5t96 133.5q54 45 131 63.5t230 18.5h239q223 0 341 -90t118 -260v-102h-383v16q0 67 -31.5 93t-113.5 26h-92
q-95 0 -130.5 -22.5t-35.5 -77.5v-62q0 -82 161 -100v0l295 -33q191 -22 285 -111.5t94 -251.5v-143q0 -185 -115 -296t-309 -111h-325q-261 0 -379.5 90t-118.5 286v103zM396 1984h139l176 -219l174 219h141l-196 -370h-238z" />
    <glyph glyph-name="scaron" unicode="&#x161;" horiz-adv-x="1169" 
d="M84 301h346q9 -58 37.5 -80t101.5 -22h45q79 0 108.5 22t29.5 80q0 55 -27.5 76.5t-114.5 30.5l-215 20q-137 13 -218 87.5t-81 184.5v84q0 139 100.5 211t292.5 72h207q179 0 269 -68.5t90 -205.5v-23h-332q-2 44 -32.5 65t-94.5 21h-43q-69 0 -98 -23t-29 -77
q0 -45 21 -64t77 -24l238 -23q165 -15 244 -78t79 -178v-90q0 -146 -100 -229.5t-276 -83.5h-224q-203 0 -302 74t-99 227v14zM271 1548h139l176 -219l174 219h141l-196 -370h-238z" />
    <glyph glyph-name="Ydieresis" unicode="&#x178;" horiz-adv-x="1411" 
d="M-4 1489h450l265 -574l260 574h446l-510 -967v-522h-399v522zM768 1673v246h226v-246h-226zM420 1673v246h226v-246h-226z" />
    <glyph glyph-name="Zcaron" unicode="&#x17d;" horiz-adv-x="1432" 
d="M94 0v348l713 795h-668v346h1174v-356l-695 -787h695v-346h-1219zM402 1984h139l176 -219l174 219h141l-196 -370h-238z" />
    <glyph glyph-name="zcaron" unicode="&#x17e;" horiz-adv-x="1108" 
d="M98 0v283l502 520h-471v250h870v-283l-491 -516h506v-254h-916zM240 1548h139l176 -219l174 219h141l-196 -370h-238z" />
    <glyph glyph-name="florin" unicode="&#x192;" horiz-adv-x="1432" 
d="M16 -358l1 284q42 -5 70 -7.5t50 -2.5q107 0 162.5 44t75.5 146l117 605h-248v227h288q43 308 164.5 439.5t364.5 131.5q34 0 62 -1.5t53 -4.5l106 -14v-287q-45 9 -81 13t-66 4q-78 0 -129.5 -40.5t-69.5 -115.5l-29 -125h256v-227h-295l-137 -695
q-38 -192 -162.5 -295.5t-316.5 -103.5q-24 0 -49 1.5t-51 4.5z" />
    <glyph glyph-name="circumflex" unicode="&#x2c6;" 
d="M197 1178l196 370h238l196 -370h-141l-174 217l-176 -217h-139z" />
    <glyph glyph-name="caron" unicode="&#x2c7;" 
d="M197 1548h139l176 -219l174 219h141l-196 -370h-238z" />
    <glyph glyph-name="breve" unicode="&#x2d8;" 
d="M203 1513h123q6 -76 50.5 -111.5t135.5 -35.5q90 0 134 35t50 112h123q-11 -156 -85 -229.5t-222 -73.5q-147 0 -222.5 74t-86.5 229z" />
    <glyph glyph-name="dotaccent" unicode="&#x2d9;" 
d="M395 1231v258h236v-258h-236z" />
    <glyph glyph-name="ring" unicode="&#x2da;" 
d="M391 1405q0 -52 34.5 -86.5t86.5 -34.5t87.5 35t35.5 86t-36 87t-87 36q-52 0 -86.5 -35.5t-34.5 -87.5zM248 1407q0 111 76 187.5t188 76.5t189 -76.5t77 -187.5q0 -113 -77 -190.5t-189 -77.5q-111 0 -187.5 77.5t-76.5 190.5z" />
    <glyph glyph-name="ogonek" unicode="&#x2db;" 
d="M674 0l-66 -117q-14 -24 -21 -43t-7 -33q0 -20 8.5 -28t29.5 -8h64v-174h-160q-63 0 -86.5 19t-23.5 69q0 30 11 58t44 71l139 186h68z" />
    <glyph glyph-name="tilde" unicode="&#x2dc;" 
d="M829 1499q-26 -125 -77 -184.5t-131 -59.5q-17 0 -35.5 3.5t-38.5 9.5l-88 24q-19 5 -35 7.5t-31 3.5q-34 0 -55 -18.5t-33 -59.5h-110q24 121 74 178t130 57q25 0 45.5 -3t40.5 -9l93 -27q12 -4 25.5 -6t29.5 -2q32 0 53.5 21.5t32.5 64.5h110z" />
    <glyph glyph-name="hungarumlaut" unicode="&#x2dd;" 
d="M563 1178l154 370h229l-270 -370h-113zM295 1178l115 370h221l-232 -370h-104z" />
    <glyph glyph-name="Omega" unicode="&#x3a9;" horiz-adv-x="1575" 
d="M1227 256h291v-256h-609v291q126 86 192 217.5t66 296.5q0 203 -101.5 319.5t-279.5 116.5q-177 0 -278.5 -116.5t-101.5 -319.5q0 -164 66 -296.5t192 -217.5v-291h-609v256h291q-126 121 -187 260t-61 303q0 313 188 501.5t500 188.5q313 0 501 -188.5t188 -501.5
q0 -164 -61 -303t-187 -260z" />
    <glyph glyph-name="pi" unicode="&#x3c0;" horiz-adv-x="1319" 
d="M1354 1092l-39 -224h-176l-154 -868h-287l152 868h-238l-151 -868h-287l152 868h-25q-55 0 -84 -31t-39 -99l-213 -1q30 200 123 277.5t311 77.5h955z" />
    <glyph glyph-name="endash" unicode="&#x2013;" 
d="M0 432v217h1024v-217h-1024z" />
    <glyph glyph-name="emdash" unicode="&#x2014;" horiz-adv-x="2048" 
d="M0 649h2048v-217h-2048v217z" />
    <glyph glyph-name="quoteleft" unicode="&#x2018;" horiz-adv-x="688" 
d="M483 1227v-332h-307v365q0 115 71 172t214 57h22v-146h-12q-49 0 -72.5 -20.5t-23.5 -65.5q0 -12 0.5 -18.5t1.5 -11.5h106z" />
    <glyph glyph-name="quoteright" unicode="&#x2019;" horiz-adv-x="688" 
d="M176 1157v332h307v-365q0 -115 -70.5 -172t-213.5 -57h-23v143h12q48 0 71.5 22t23.5 66q0 11 -0.5 17.5t-2.5 13.5h-104z" />
    <glyph glyph-name="quotesinglbase" unicode="&#x201a;" horiz-adv-x="688" 
d="M176 0v332h307v-367q0 -115 -70.5 -171t-213.5 -56h-23v143h12q48 0 71.5 22t23.5 66q0 11 -0.5 17.5t-2.5 13.5h-104z" />
    <glyph glyph-name="quotedblleft" unicode="&#x201c;" horiz-adv-x="1157" 
d="M979 1227v-332h-305v365q0 115 70 172t212 57h23v-146h-12q-49 0 -72 -21t-23 -65q0 -11 0.5 -17t2.5 -13h104zM483 1227v-332h-307v365q0 115 71 172t214 57h22v-146h-12q-49 0 -72.5 -20.5t-23.5 -65.5q0 -12 0.5 -18.5t1.5 -11.5h106z" />
    <glyph glyph-name="quotedblright" unicode="&#x201d;" horiz-adv-x="1157" 
d="M672 1157v332h307v-365q0 -115 -71 -172t-214 -57h-22v143h12q49 0 72.5 22t23.5 66q0 13 -0.5 19.5t-1.5 11.5h-106zM176 1157v332h307v-365q0 -115 -70.5 -172t-213.5 -57h-23v143h12q48 0 71.5 22t23.5 66q0 11 -0.5 17.5t-2.5 13.5h-104z" />
    <glyph glyph-name="quotedblbase" unicode="&#x201e;" horiz-adv-x="1157" 
d="M672 0v332h307v-367q0 -115 -70.5 -171t-214.5 -56h-22v143h12q49 0 72.5 22t23.5 66q0 13 -0.5 19.5t-1.5 11.5h-106zM176 0v332h307v-367q0 -115 -70.5 -171t-213.5 -56h-23v143h12q48 0 71.5 22t23.5 66q0 11 -0.5 17.5t-2.5 13.5h-104z" />
    <glyph glyph-name="dagger" unicode="&#x2020;" horiz-adv-x="1049" 
d="M350 0v829h-299v310h299v350h346v-350h299v-310h-299v-829h-346z" />
    <glyph glyph-name="daggerdbl" unicode="&#x2021;" horiz-adv-x="1049" 
d="M352 0v285h-260v284h260v361h-260v280h260v279h342v-279h260v-280h-260v-361h260v-284h-260v-285h-342z" />
    <glyph glyph-name="bullet" unicode="&#x2022;" horiz-adv-x="1208" 
d="M307 762q0 123 87 209t210 86q122 0 208.5 -86.5t86.5 -208.5t-87.5 -209.5t-209.5 -87.5q-123 0 -209 87t-86 210z" />
    <glyph glyph-name="ellipsis" unicode="&#x2026;" horiz-adv-x="2048" 
d="M179 0v356h327v-356h-327zM861 0v356h327v-356h-327zM1545 0v356h327v-356h-327z" />
    <glyph glyph-name="perthousand" unicode="&#x2030;" horiz-adv-x="3213" 
d="M2720 211h33q56 0 75 29t19 145v203q0 114 -19.5 145t-74.5 31h-33q-55 0 -73.5 -30t-18.5 -146v-203q0 -116 18 -145t74 -29zM2687 -18q-187 0 -260.5 74t-73.5 263v334q0 189 74 263.5t260 74.5h96q186 0 260 -74t74 -264v-334q0 -190 -73 -263.5t-261 -73.5h-96z
M1753 211h33q55 0 73.5 28t18.5 146v203q0 116 -19 146t-73 30h-33q-55 0 -73.5 -30t-18.5 -146v-203q0 -116 18 -145t74 -29zM1720 -18q-186 0 -260 74t-74 263v334q0 189 74 263.5t260 74.5h97q186 0 259.5 -74t73.5 -264v-334q0 -190 -73 -263.5t-260 -73.5h-97zM455 727
h32q55 0 74 28.5t19 147.5v201q0 116 -19 146t-74 30h-32q-55 0 -74 -29.5t-19 -146.5v-201q0 -117 18.5 -146.5t74.5 -29.5zM422 498q-187 0 -260.5 74t-73.5 264v333q0 189 74 263.5t260 74.5h96q186 0 260 -73.5t74 -264.5v-333q0 -191 -73.5 -264.5t-260.5 -73.5h-96z
M608 -18l858 1525h166l-856 -1525h-168z" />
    <glyph glyph-name="guilsinglleft" unicode="&#x2039;" horiz-adv-x="621" 
d="M307 238l-209 303l209 303h217l-205 -303l205 -303h-217z" />
    <glyph glyph-name="guilsinglright" unicode="&#x203a;" horiz-adv-x="621" 
d="M315 844l209 -303l-209 -303h-217l205 303l-205 303h217z" />
    <glyph glyph-name="franc" unicode="&#x20a3;" horiz-adv-x="2292" 
d="M152 0v1489h1001v-332h-602v-289h567v-327h-567v-541h-399zM1402 0v1053h324l-4 -150q40 87 100 125.5t156 38.5q159 0 221 -81t62 -302v-94h-314v67q0 76 -22.5 106t-81.5 30q-62 0 -84.5 -35t-22.5 -168v-590h-334z" />
    <glyph glyph-name="trademark" unicode="&#x2122;" horiz-adv-x="1706" 
d="M803 1462h196l127 -332l123 332h197v-547h-135v410l-154 -410h-61l-158 410v-410h-135v547zM207 1462h485v-112h-168v-435h-149v435h-168v112z" />
    <glyph glyph-name="partialdiff" unicode="&#x2202;" horiz-adv-x="1094" 
d="M762 662q19 99 29 188.5t10 155.5q0 100 -26 157.5t-70 57.5t-146 -73t-160 -73q-42 0 -71 30t-29 73q0 64 86.5 118t210.5 54q192 0 309 -161.5t117 -432.5q0 -339 -156.5 -560t-396.5 -221q-171 0 -282 114.5t-111 291.5q0 198 116 329.5t287 131.5q102 0 170 -43.5
t113 -136.5zM700 518q0 116 -38.5 178t-110.5 62q-101 0 -167.5 -134t-66.5 -341q0 -117 38.5 -177.5t111.5 -60.5q101 0 167 133.5t66 339.5z" />
    <glyph glyph-name="Delta" unicode="&#x2206;" horiz-adv-x="1427" 
d="M713 1110l-326 -854h653zM563 1473h301l563 -1473h-1427z" />
    <glyph glyph-name="product" unicode="&#x220f;" horiz-adv-x="1612" 
d="M150 1473h1308v-1866h-344v1577h-620v-1577h-344v1866z" />
    <glyph glyph-name="summation" unicode="&#x2211;" horiz-adv-x="1470" 
d="M66 1473h1308v-265h-878l620 -645l-622 -690h933v-266h-1386v172l698 772l-673 690v232z" />
    <glyph glyph-name="minus" unicode="&#x2212;" horiz-adv-x="1706" 
d="M254 713h1198v-203h-1198v203z" />
    <glyph glyph-name="fraction" unicode="&#x2215;" horiz-adv-x="342" 
d="M-342 -18l856 1525h168l-856 -1525h-168z" />
    <glyph glyph-name="periodcentered" unicode="&#x2219;" horiz-adv-x="717" 
d="M168 758q0 82 54.5 136t137.5 54t135 -53.5t52 -136.5q0 -80 -52 -134.5t-128 -54.5q-89 0 -144 52.5t-55 136.5z" />
    <glyph glyph-name="radical" unicode="&#x221a;" horiz-adv-x="1346" 
d="M1141 1694h207v-129h-103l-592 -1606h-100l-311 858l-140 -51l-30 113l331 116l236 -661z" />
    <glyph glyph-name="infinity" unicode="&#x221e;" horiz-adv-x="1706" 
d="M942 561q45 -75 106.5 -113t139.5 -38q94 0 152.5 55.5t58.5 144.5q0 86 -54 142.5t-135 56.5q-74 0 -136 -57t-132 -191zM766 659q-46 76 -107 113t-139 37q-93 0 -152 -56.5t-59 -144.5q0 -85 54 -141.5t135 -56.5q75 0 138 58t130 191zM858 457q-69 -133 -147 -195.5
t-174 -62.5q-139 0 -235.5 117.5t-96.5 293.5q0 184 85.5 297t223.5 113q93 0 169.5 -58.5t164.5 -199.5q68 132 148 196t175 64q139 0 235.5 -118t96.5 -294q0 -183 -86 -296t-223 -113q-93 0 -168.5 56.5t-167.5 199.5z" />
    <glyph glyph-name="integral" unicode="&#x222b;" horiz-adv-x="1186" 
d="M342 -252q102 0 121 639q3 136 6 211q16 508 123 732t328 224q98 0 157.5 -49t59.5 -129q0 -60 -38 -96.5t-100 -36.5q-46 0 -77 24t-41 68q-5 20 -7 54q-3 46 -30 47q-99 0 -119 -633q-4 -116 -6 -178q-11 -296 -31 -444.5t-59 -250.5q-56 -148 -148.5 -225.5
t-214.5 -77.5q-96 0 -156.5 49t-60.5 127q0 62 39 99t105 37q50 0 85 -31.5t35 -71.5q0 -58 6 -73t23 -15z" />
    <glyph glyph-name="approxequal" unicode="&#x2248;" horiz-adv-x="1706" 
d="M1530 596v-219q-106 -72 -198 -105.5t-181 -33.5q-95 0 -286.5 66.5t-301.5 66.5q-84 0 -174.5 -37t-210.5 -121v219q111 73 206.5 108t180.5 35q124 0 315.5 -65.5t274.5 -65.5q86 0 174 35.5t201 116.5zM1530 1008v-220q-106 -71 -196.5 -104t-180.5 -33
q-94 0 -286 65.5t-304 65.5q-82 0 -170 -35t-215 -122v219q107 71 204 107t183 36q125 0 316.5 -65.5t273.5 -65.5q84 0 171 35t204 117z" />
    <glyph glyph-name="notequal" unicode="&#x2260;" horiz-adv-x="1706" 
d="M1198 1233l148 -119l-154 -192h260v-191h-389l-191 -239h580v-193h-707l-245 -309l-148 119l154 190h-252v193h377l190 239h-567v191h696z" />
    <glyph glyph-name="lessequal" unicode="&#x2264;" horiz-adv-x="1706" 
d="M258 195h1192v-197h-1192v197zM1448 1241v-209l-834 -264l834 -262v-209l-1190 385v174z" />
    <glyph glyph-name="greaterequal" unicode="&#x2265;" horiz-adv-x="1706" 
d="M258 195h1192v-197h-1192v197zM260 1241l1188 -385v-174l-1188 -385v209l832 262l-832 264v209z" />
    <glyph glyph-name="lozenge" unicode="&#x25ca;" horiz-adv-x="1012" 
d="M506 1409l-385 -817l385 -825l385 825zM506 1653l500 -1061l-500 -1069l-500 1069z" />
    <glyph glyph-name="apple" unicode="&#xf000;" horiz-adv-x="1618" 
d="M836 1216q-1 6 -1.5 14t-0.5 23q0 124 95 229.5t236 131.5q1 -10 1.5 -23t0.5 -39q0 -131 -103.5 -234.5t-203.5 -103.5h-8q-3 0 -7.5 1t-8.5 1zM1505 403q-114 -247 -205 -342.5t-204 -95.5q-50 0 -131.5 33t-122.5 33q-45 0 -131 -33t-127 -33q-64 0 -128.5 44
t-129.5 132q-102 140 -157.5 295.5t-55.5 300.5q0 219 125 356.5t323 137.5q68 0 155 -34t124 -34q34 0 121.5 35t152.5 35q110 0 198 -40t161 -124q-102 -65 -151.5 -145.5t-49.5 -182.5q0 -113 60 -200t173 -138z" />
    <glyph glyph-name="fi" unicode="&#xf001;" horiz-adv-x="1274" 
d="M166 0v797h-115v256h115q-1 13 -1.5 29.5t-0.5 47.5q0 187 75.5 273t239.5 86h215v-246h-47q-75 0 -108 -21t-33 -69v-100h188v-256h-188v-797h-340zM797 1227v262h338v-262h-338zM797 0v1053h338v-1053h-338z" />
    <glyph glyph-name="fl" unicode="&#xf002;" horiz-adv-x="1274" 
d="M166 0v797h-115v256h115q-1 13 -1.5 29.5t-0.5 47.5q0 187 75.5 273t239.5 86h215v-246h-47q-75 0 -108 -21t-33 -69v-100h188v-256h-188v-797h-340zM797 0v1489h338v-1489h-338z" />
    </font>
</defs>
</svg>
